<svg width="136" height="44" viewBox="0 0 136 44" fill="none" xmlns="http://www.w3.org/2000/svg">
<g id="airbnb_logo.svg" clip-path="url(#clip0_4005_924)">
<path id="Vector" d="M71.4457 11.4447C71.4457 12.9647 70.226 14.1892 68.712 14.1892C67.198 14.1892 65.9784 12.9647 65.9784 11.4447C65.9784 9.92465 67.156 8.70018 68.712 8.70018C70.2681 8.74241 71.4457 9.96688 71.4457 11.4447ZM60.1748 16.9759C60.1748 17.2293 60.1748 17.6515 60.1748 17.6515C60.1748 17.6515 58.871 15.9626 56.0954 15.9626C51.5113 15.9626 47.9366 19.4671 47.9366 24.3227C47.9366 29.1362 51.4693 32.6829 56.0954 32.6829C58.9131 32.6829 60.1748 30.9518 60.1748 30.9518V31.6696C60.1748 32.0074 60.4271 32.2607 60.7635 32.2607H64.17V16.3848C64.17 16.3848 61.0579 16.3848 60.7635 16.3848C60.4271 16.3848 60.1748 16.6804 60.1748 16.9759ZM60.1748 27.1517C59.5439 28.0806 58.2823 28.8828 56.7683 28.8828C54.0767 28.8828 52.016 27.1939 52.016 24.3227C52.016 21.4516 54.0767 19.7626 56.7683 19.7626C58.2402 19.7626 59.586 20.6071 60.1748 21.4938V27.1517ZM66.6934 16.3848H70.7307V32.2607H66.6934V16.3848ZM127.001 15.9626C124.225 15.9626 122.922 17.6515 122.922 17.6515V8.74241H118.884V32.2607C118.884 32.2607 121.996 32.2607 122.291 32.2607C122.627 32.2607 122.88 31.9651 122.88 31.6696V30.9518C122.88 30.9518 124.183 32.6829 126.959 32.6829C131.543 32.6829 135.118 29.1362 135.118 24.3227C135.118 19.5093 131.543 15.9626 127.001 15.9626ZM126.328 28.8406C124.772 28.8406 123.553 28.0384 122.922 27.1095V21.4516C123.553 20.6071 124.898 19.7204 126.328 19.7204C129.02 19.7204 131.08 21.4093 131.08 24.2805C131.08 27.1517 129.02 28.8406 126.328 28.8406ZM116.782 22.8449V32.3029H112.744V23.3094C112.744 20.6916 111.903 19.636 109.632 19.636C108.413 19.636 107.151 20.2693 106.352 21.1982V32.2607H102.314V16.3848H105.511C105.847 16.3848 106.099 16.6804 106.099 16.9759V17.6515C107.277 16.427 108.833 15.9626 110.389 15.9626C112.155 15.9626 113.627 16.4692 114.805 17.4826C116.235 18.6648 116.782 20.1849 116.782 22.8449ZM92.5155 15.9626C89.7398 15.9626 88.4361 17.6515 88.4361 17.6515V8.74241H84.3988V32.2607C84.3988 32.2607 87.5109 32.2607 87.8053 32.2607C88.1417 32.2607 88.3941 31.9651 88.3941 31.6696V30.9518C88.3941 30.9518 89.6978 32.6829 92.4734 32.6829C97.0575 32.6829 100.632 29.1362 100.632 24.3227C100.674 19.5093 97.0996 15.9626 92.5155 15.9626ZM91.8426 28.8406C90.2866 28.8406 89.0669 28.0384 88.4361 27.1095V21.4516C89.0669 20.6071 90.4127 19.7204 91.8426 19.7204C94.5342 19.7204 96.5949 21.4093 96.5949 24.2805C96.5949 27.1517 94.5342 28.8406 91.8426 28.8406ZM80.9082 15.9626C82.1278 15.9626 82.7586 16.1737 82.7586 16.1737V19.9315C82.7586 19.9315 79.3942 18.7915 77.2914 21.1982V32.3029H73.254V16.3848C73.254 16.3848 76.3662 16.3848 76.6606 16.3848C76.997 16.3848 77.2493 16.6804 77.2493 16.9759V17.6515C78.0063 16.7648 79.6465 15.9626 80.9082 15.9626ZM38.9787 30.8251C38.7685 30.3184 38.5582 29.7695 38.3479 29.3051C38.0115 28.5451 37.675 27.8273 37.3806 27.1517L37.3386 27.1095C34.4367 20.776 31.3246 14.3581 28.0443 8.02461L27.9181 7.77127C27.5817 7.13793 27.2452 6.46236 26.9088 5.78679C26.4882 5.02677 26.0677 4.22453 25.3948 3.46451C24.049 1.77559 22.1145 0.84668 20.0537 0.84668C17.951 0.84668 16.0585 1.77559 14.6706 3.38007C14.0398 4.14008 13.5772 4.94232 13.1566 5.70234C12.8202 6.37791 12.4837 7.05348 12.1473 7.68683L12.0211 7.94017C8.78284 14.2736 5.62867 20.6916 2.72684 27.025L2.68478 27.1095C2.39039 27.785 2.05395 28.5028 1.7175 29.2628C1.50722 29.7273 1.29695 30.234 1.08667 30.7829C0.539945 32.3451 0.371723 33.8229 0.582001 35.343C1.04461 38.5097 3.14739 41.1698 6.04923 42.352C7.14267 42.8165 8.27817 43.0276 9.45573 43.0276C9.79217 43.0276 10.2127 42.9854 10.5492 42.9431C11.937 42.7743 13.3669 42.3098 14.7547 41.5076C16.479 40.5364 18.1192 39.1431 19.9696 37.1164C21.8201 39.1431 23.5023 40.5364 25.1845 41.5076C26.5724 42.3098 28.0022 42.7743 29.3901 42.9431C29.7265 42.9854 30.1471 43.0276 30.4835 43.0276C31.6611 43.0276 32.8386 42.8165 33.89 42.352C36.8339 41.1698 38.8946 38.4675 39.3572 35.343C39.6937 33.8652 39.5255 32.3874 38.9787 30.8251ZM20.0117 33.0207C17.7407 30.1495 16.2687 27.4473 15.7641 25.1672C15.5538 24.1961 15.5117 23.3516 15.6379 22.5916C15.722 21.916 15.9743 21.3249 16.3108 20.8182C17.1098 19.6782 18.4556 18.9604 20.0117 18.9604C21.5677 18.9604 22.9556 19.636 23.7126 20.8182C24.049 21.3249 24.3013 21.916 24.3855 22.5916C24.5116 23.3516 24.4696 24.2383 24.2593 25.1672C23.7546 27.405 22.2827 30.1073 20.0117 33.0207ZM36.7919 35.0052C36.4975 37.2008 35.0255 39.1008 32.9648 39.9453C31.9555 40.3675 30.862 40.4942 29.7686 40.3675C28.7172 40.2409 27.6658 39.9031 26.5724 39.2697C25.0584 38.4253 23.5443 37.1164 21.778 35.1741C24.5537 31.754 26.2359 28.6295 26.8667 25.8428C27.1611 24.5339 27.2032 23.3516 27.077 22.2538C26.9088 21.1982 26.5303 20.2271 25.9415 19.3826C24.6378 17.4826 22.4509 16.3848 20.0117 16.3848C17.5725 16.3848 15.3856 17.5248 14.0818 19.3826C13.4931 20.2271 13.1146 21.1982 12.9463 22.2538C12.7781 23.3516 12.8202 24.5761 13.1566 25.8428C13.7875 28.6295 15.5117 31.7962 18.2453 35.2163C16.5211 37.1586 14.965 38.4675 13.451 39.312C12.3576 39.9453 11.3062 40.2831 10.2548 40.4098C9.11928 40.5364 8.02584 40.3675 7.05856 39.9875C4.99784 39.1431 3.52589 37.243 3.2315 35.0474C3.10534 33.9918 3.18945 32.9363 3.61 31.754C3.73617 31.3318 3.94645 30.9095 4.15672 30.4029C4.45111 29.7273 4.78756 29.0095 5.124 28.2917L5.16606 28.2073C8.06789 21.916 11.18 15.4981 14.4183 9.24908L14.5445 8.99574C14.8809 8.3624 15.2173 7.68683 15.5538 7.05348C15.8902 6.37791 16.2687 5.74456 16.7313 5.19566C17.6145 4.18231 18.7921 3.63341 20.0958 3.63341C21.3995 3.63341 22.5771 4.18231 23.4602 5.19566C23.9228 5.74456 24.3014 6.37791 24.6378 7.05348C24.9742 7.68683 25.3107 8.3624 25.6471 8.99574L25.7733 9.24908C28.9695 15.5403 32.0816 21.9582 34.9835 28.2495V28.2917C35.3199 28.9673 35.6143 29.7273 35.9507 30.4029C36.161 30.9095 36.3713 31.3318 36.4975 31.754C36.8339 32.8518 36.9601 33.9074 36.7919 35.0052Z" fill="#FF385C"/>
</g>
<defs>
<clipPath id="clip0_4005_924">
<rect width="134.62" height="42.1809" fill="white" transform="translate(0.497314 0.84668)"/>
</clipPath>
</defs>
</svg>
