<svg width="125" height="40" viewBox="0 0 125 40" fill="none" xmlns="http://www.w3.org/2000/svg">
<g id="amazon_logo.svg" clip-path="url(#clip0_4005_892)">
<path id="path8" fill-rule="evenodd" clip-rule="evenodd" d="M77.2288 30.8206C70.0316 36.3057 59.5998 39.2322 50.6182 39.2322C38.0245 39.2322 26.687 34.416 18.1097 26.4057C17.4358 25.7758 18.0396 24.9174 18.8483 25.4079C28.1048 30.9767 39.5502 34.3268 51.3729 34.3268C59.3464 34.3268 68.1178 32.6211 76.1829 29.0814C77.4013 28.5462 78.4202 29.9064 77.2288 30.8206Z" fill="#FF9900"/>
<path id="path10" fill-rule="evenodd" clip-rule="evenodd" d="M80.2206 27.2815C79.3041 26.0663 74.1395 26.7073 71.8213 26.9916C71.115 27.0808 71.0072 26.4453 71.6434 25.9882C75.7568 22.9948 82.5065 23.8588 83.2936 24.8622C84.0807 25.8712 83.0887 32.8669 79.2233 36.206C78.6303 36.7188 78.0642 36.4457 78.3284 35.7656C79.1963 33.5247 81.1425 28.5023 80.2206 27.2815Z" fill="#FF9900"/>
<path id="path12" fill-rule="evenodd" clip-rule="evenodd" d="M71.9832 4.85556V1.94577C71.9832 1.5054 72.3067 1.20996 72.6948 1.20996H85.2939C85.6982 1.20996 86.0217 1.51097 86.0217 1.94577V4.43749C86.0163 4.85556 85.6766 5.40185 85.0728 6.26587L78.5442 15.9039C80.9702 15.8426 83.531 16.216 85.7306 17.4981C86.2265 17.788 86.3613 18.2116 86.3991 18.6297V21.7346C86.3991 22.1583 85.9462 22.6544 85.4718 22.3979C81.5956 20.2964 76.447 20.0679 72.1611 22.4202C71.7244 22.6655 71.2662 22.175 71.2662 21.7513V18.8025C71.2662 18.3287 71.2716 17.5204 71.7298 16.8013L79.2936 5.5858H72.711C72.3067 5.5858 71.9832 5.29036 71.9832 4.85556Z" fill="black"/>
<path id="path14" fill-rule="evenodd" clip-rule="evenodd" d="M26.0233 23.0116H22.1902C21.8236 22.9837 21.5325 22.6994 21.5056 22.3371V1.99638C21.5056 1.58945 21.8344 1.26614 22.2441 1.26614H25.8185C26.1904 1.28285 26.487 1.5783 26.5139 1.9462V4.60516H26.584C27.5167 2.03539 29.2688 0.836914 31.6301 0.836914C34.0291 0.836914 35.5279 2.03539 36.6061 4.60516C37.5334 2.03539 39.6413 0.836914 41.9002 0.836914C43.5067 0.836914 45.2642 1.52256 46.3371 3.06107C47.5501 4.77238 47.3021 7.25853 47.3021 9.43809L47.2967 22.2757C47.2967 22.6827 46.9678 23.0116 46.5581 23.0116H42.7304C42.3476 22.9837 42.0404 22.6659 42.0404 22.2757V11.495C42.0404 10.6366 42.1158 8.49603 41.9325 7.68218C41.6468 6.31647 40.7896 5.93184 39.679 5.93184C38.7518 5.93184 37.7814 6.57289 37.3878 7.59856C36.9943 8.62424 37.032 10.3411 37.032 11.495V22.2757C37.032 22.6827 36.7031 23.0116 36.2934 23.0116H32.4657C32.0776 22.9837 31.7757 22.6659 31.7757 22.2757L31.7703 11.495C31.7703 9.22626 32.1315 5.88725 29.409 5.88725C26.6541 5.88725 26.7619 9.14265 26.7619 11.495V22.2757C26.7619 22.6827 26.433 23.0116 26.0233 23.0116Z" fill="black"/>
<path id="path16" fill-rule="evenodd" clip-rule="evenodd" d="M96.8685 0.836914C102.556 0.836914 105.634 5.88725 105.634 12.3089C105.634 18.5131 102.233 23.4352 96.8685 23.4352C91.2833 23.4352 88.2427 18.3849 88.2427 12.0915C88.2427 5.75904 91.321 0.836914 96.8685 0.836914ZM96.9008 4.98978C94.0759 4.98978 93.898 8.96984 93.898 11.4504C93.898 13.9366 93.8602 19.2433 96.8685 19.2433C99.839 19.2433 99.9792 14.9622 99.9792 12.3535C99.9792 10.6366 99.9091 8.58522 99.4077 6.95752C98.9764 5.54164 98.1192 4.98978 96.9008 4.98978Z" fill="black"/>
<path id="path18" fill-rule="evenodd" clip-rule="evenodd" d="M113.01 23.0116H109.193C108.81 22.9837 108.503 22.6659 108.503 22.2757L108.498 1.92948C108.53 1.556 108.848 1.26614 109.236 1.26614H112.789C113.123 1.28285 113.398 1.51698 113.474 1.83472V4.94519H113.544C114.617 2.1636 116.121 0.836914 118.768 0.836914C120.488 0.836914 122.164 1.47796 123.242 3.23387C124.245 4.86157 124.245 7.59856 124.245 9.56629V22.3705C124.202 22.7273 123.884 23.0116 123.507 23.0116H119.663C119.312 22.9837 119.021 22.7161 118.983 22.3705V11.3222C118.983 9.09806 119.231 5.84265 116.584 5.84265C115.652 5.84265 114.795 6.48928 114.369 7.47035C113.83 8.71343 113.759 9.95093 113.759 11.3222V22.2757C113.754 22.6827 113.42 23.0116 113.01 23.0116Z" fill="black"/>
<path id="path28" fill-rule="evenodd" clip-rule="evenodd" d="M61.9395 13.2953C61.9395 14.8394 61.9772 16.1271 61.2224 17.4983C60.6132 18.6132 59.6428 19.2988 58.57 19.2988C57.0982 19.2988 56.2356 18.1394 56.2356 16.4281C56.2356 13.05 59.163 12.4369 61.9395 12.4369V13.2953ZM65.8049 22.9556C65.5515 23.1897 65.1849 23.2064 64.8992 23.0504C63.6269 21.9578 63.3951 21.4505 62.6996 20.4081C60.5971 22.6267 59.1037 23.2901 56.3812 23.2901C53.1519 23.2901 50.6451 21.2331 50.6451 17.1137C50.6451 13.8973 52.3271 11.7066 54.7315 10.6364C56.8125 9.68872 59.7183 9.52149 61.9395 9.2595V8.74666C61.9395 7.8046 62.0095 6.68974 61.4704 5.87589C61.0068 5.14565 60.1119 4.84464 59.3194 4.84464C57.8584 4.84464 56.5591 5.61947 56.241 7.22487C56.1763 7.58163 55.923 7.93281 55.5725 7.94954L51.8581 7.53703C51.5454 7.46457 51.1949 7.20257 51.2866 6.70646C52.1384 2.04633 56.2141 0.641602 59.8585 0.641602C61.7238 0.641602 64.1606 1.15444 65.6324 2.61491C67.4977 4.41542 67.3198 6.81795 67.3198 9.4323V15.6086C67.3198 17.4649 68.0638 18.2787 68.7646 19.2821C69.0072 19.6389 69.0611 20.0681 68.7484 20.3357C67.9667 21.0102 66.5758 22.2644 65.8103 22.9668L65.8049 22.9556Z" fill="black"/>
<path id="path30" fill-rule="evenodd" clip-rule="evenodd" d="M11.6886 13.2953C11.6886 14.8394 11.7264 16.1271 10.9716 17.4983C10.3624 18.6132 9.3974 19.2988 8.31918 19.2988C6.8474 19.2988 5.99021 18.1394 5.99021 16.4281C5.99021 13.05 8.91759 12.4369 11.6886 12.4369V13.2953ZM15.5541 22.9556C15.3007 23.1897 14.9341 23.2064 14.6484 23.0504C13.3761 21.9578 13.1496 21.4505 12.4488 20.4081C10.3462 22.6267 8.85829 23.2901 6.13038 23.2901C2.90649 23.2901 0.394226 21.2331 0.394226 17.1137C0.394226 13.8973 2.08165 11.7066 4.4807 10.6364C6.56167 9.68872 9.46749 9.52149 11.6886 9.2595V8.74666C11.6886 7.8046 11.7587 6.68974 11.225 5.87589C10.756 5.14565 9.86104 4.84464 9.07394 4.84464C7.61294 4.84464 6.30829 5.61947 5.99021 7.22487C5.92552 7.58163 5.67214 7.93281 5.32711 7.94954L1.60723 7.53703C1.29454 7.46457 0.949511 7.20257 1.03577 6.70646C1.89296 2.04633 5.96326 0.641602 9.60766 0.641602C11.473 0.641602 13.9098 1.15444 15.3816 2.61491C17.2469 4.41542 17.069 6.81795 17.069 9.4323V15.6086C17.069 17.4649 17.813 18.2787 18.5138 19.2821C18.7618 19.6389 18.8157 20.0681 18.503 20.3357C17.7213 21.0102 16.3304 22.2644 15.5648 22.9668L15.5541 22.9556Z" fill="black"/>
</g>
<defs>
<clipPath id="clip0_4005_892">
<rect width="123.85" height="38.591" fill="white" transform="translate(0.394226 0.641602)"/>
</clipPath>
</defs>
</svg>
