<svg width="16" height="16" viewBox="0 0 16 16" fill="none" xmlns="http://www.w3.org/2000/svg">
<g clip-path="url(#clip0_3315_1624)">
<path d="M11.4467 16C11.3589 16.0005 11.2719 15.9837 11.1907 15.9505C11.1095 15.9174 11.0356 15.8685 10.9733 15.8067L5.52666 10.36C5.21623 10.0504 4.96995 9.68256 4.80191 9.27759C4.63386 8.87262 4.54736 8.43848 4.54736 8.00003C4.54736 7.56158 4.63386 7.12744 4.80191 6.72248C4.96995 6.31751 5.21623 5.94967 5.52666 5.64004L10.9733 0.193375C11.0355 0.131216 11.1093 0.0819092 11.1905 0.048269C11.2717 0.0146288 11.3587 -0.00268555 11.4467 -0.00268555C11.5346 -0.00268555 11.6216 0.0146288 11.7028 0.048269C11.784 0.0819092 11.8578 0.131216 11.92 0.193375C11.9821 0.255534 12.0315 0.329328 12.0651 0.410542C12.0987 0.491757 12.116 0.578802 12.116 0.666708C12.116 0.754614 12.0987 0.841659 12.0651 0.922874C12.0315 1.00409 11.9821 1.07788 11.92 1.14004L6.47332 6.5867C6.09879 6.9617 5.88842 7.47003 5.88842 8.00003C5.88842 8.53003 6.09879 9.03836 6.47332 9.41336L11.92 14.86C11.9825 14.922 12.0321 14.9957 12.0659 15.077C12.0998 15.1582 12.1172 15.2453 12.1172 15.3334C12.1172 15.4214 12.0998 15.5085 12.0659 15.5897C12.0321 15.671 11.9825 15.7447 11.92 15.8067C11.8577 15.8685 11.7838 15.9174 11.7026 15.9505C11.6214 15.9837 11.5344 16.0005 11.4467 16Z" fill="#374957"/>
</g>
<defs>
<clipPath id="clip0_3315_1624">
<rect width="16" height="16" fill="white"/>
</clipPath>
</defs>
</svg>
