<svg width="17" height="17" viewBox="0 0 17 17" fill="none" xmlns="http://www.w3.org/2000/svg">
<g clip-path="url(#clip0_3315_1640)">
<path d="M13.4583 2.83333H12.6792C12.5148 2.03392 12.0798 1.31562 11.4476 0.799509C10.8153 0.283397 10.0245 0.00103029 9.20833 0L7.79167 0C6.97552 0.00103029 6.18468 0.283397 5.55245 0.799509C4.92021 1.31562 4.48523 2.03392 4.32083 2.83333H3.54167C2.6027 2.83446 1.70252 3.20796 1.03857 3.87191C0.374625 4.53585 0.00112473 5.43604 0 6.375L0 8.5H17V6.375C16.9989 5.43604 16.6254 4.53585 15.9614 3.87191C15.2975 3.20796 14.3973 2.83446 13.4583 2.83333ZM5.797 2.83333C5.94298 2.42044 6.21296 2.06273 6.57 1.80915C6.92705 1.55556 7.35373 1.41848 7.79167 1.41667H9.20833C9.64627 1.41848 10.0729 1.55556 10.43 1.80915C10.787 2.06273 11.057 2.42044 11.203 2.83333H5.797Z" fill="#374957"/>
<path d="M9.20833 10.6248C9.20833 10.8127 9.13371 10.9929 9.00087 11.1257C8.86803 11.2585 8.68786 11.3332 8.5 11.3332C8.31214 11.3332 8.13197 11.2585 7.99913 11.1257C7.86629 10.9929 7.79167 10.8127 7.79167 10.6248V9.9165H0V13.4582C0.00112473 14.3971 0.374625 15.2973 1.03857 15.9612C1.70252 16.6252 2.6027 16.9987 3.54167 16.9998H13.4583C14.3973 16.9987 15.2975 16.6252 15.9614 15.9612C16.6254 15.2973 16.9989 14.3971 17 13.4582V9.9165H9.20833V10.6248Z" fill="#374957"/>
</g>
<defs>
<clipPath id="clip0_3315_1640">
<rect width="17" height="17" fill="white"/>
</clipPath>
</defs>
</svg>
