<svg width="23" height="23" viewBox="0 0 23 23" fill="none" xmlns="http://www.w3.org/2000/svg">
<g clip-path="url(#clip0_3315_1666)">
<path d="M8.625 0H4.79167C3.52084 0 2.30206 0.504835 1.40345 1.40345C0.504835 2.30206 0 3.52084 0 4.79167L0 18.2083C0 18.8376 0.12394 19.4607 0.364744 20.042C0.605548 20.6234 0.958499 21.1516 1.40345 21.5966C2.30206 22.4952 3.52084 23 4.79167 23H13.4167V4.79167C13.4167 4.16242 13.2927 3.53933 13.0519 2.95798C12.8111 2.37662 12.4582 1.84839 12.0132 1.40345C11.5683 0.958499 11.04 0.605548 10.4587 0.364744C9.87734 0.12394 9.25425 0 8.625 0V0ZM4.79167 18.2083H3.83333C3.57917 18.2083 3.33541 18.1074 3.15569 17.9276C2.97597 17.7479 2.875 17.5042 2.875 17.25C2.875 16.9958 2.97597 16.7521 3.15569 16.5724C3.33541 16.3926 3.57917 16.2917 3.83333 16.2917H4.79167C5.04583 16.2917 5.28959 16.3926 5.46931 16.5724C5.64903 16.7521 5.75 16.9958 5.75 17.25C5.75 17.5042 5.64903 17.7479 5.46931 17.9276C5.28959 18.1074 5.04583 18.2083 4.79167 18.2083ZM4.79167 14.375H3.83333C3.57917 14.375 3.33541 14.274 3.15569 14.0943C2.97597 13.9146 2.875 13.6708 2.875 13.4167C2.875 13.1625 2.97597 12.9187 3.15569 12.739C3.33541 12.5593 3.57917 12.4583 3.83333 12.4583H4.79167C5.04583 12.4583 5.28959 12.5593 5.46931 12.739C5.64903 12.9187 5.75 13.1625 5.75 13.4167C5.75 13.6708 5.64903 13.9146 5.46931 14.0943C5.28959 14.274 5.04583 14.375 4.79167 14.375ZM4.79167 10.5417H3.83333C3.57917 10.5417 3.33541 10.4407 3.15569 10.261C2.97597 10.0813 2.875 9.8375 2.875 9.58333C2.875 9.32917 2.97597 9.08541 3.15569 8.90569C3.33541 8.72597 3.57917 8.625 3.83333 8.625H4.79167C5.04583 8.625 5.28959 8.72597 5.46931 8.90569C5.64903 9.08541 5.75 9.32917 5.75 9.58333C5.75 9.8375 5.64903 10.0813 5.46931 10.261C5.28959 10.4407 5.04583 10.5417 4.79167 10.5417ZM4.79167 6.70833H3.83333C3.57917 6.70833 3.33541 6.60737 3.15569 6.42764C2.97597 6.24792 2.875 6.00417 2.875 5.75C2.875 5.49583 2.97597 5.25208 3.15569 5.07236C3.33541 4.89263 3.57917 4.79167 3.83333 4.79167H4.79167C5.04583 4.79167 5.28959 4.89263 5.46931 5.07236C5.64903 5.25208 5.75 5.49583 5.75 5.75C5.75 6.00417 5.64903 6.24792 5.46931 6.42764C5.28959 6.60737 5.04583 6.70833 4.79167 6.70833ZM9.58333 18.2083H8.625C8.37083 18.2083 8.12708 18.1074 7.94736 17.9276C7.76763 17.7479 7.66667 17.5042 7.66667 17.25C7.66667 16.9958 7.76763 16.7521 7.94736 16.5724C8.12708 16.3926 8.37083 16.2917 8.625 16.2917H9.58333C9.8375 16.2917 10.0813 16.3926 10.261 16.5724C10.4407 16.7521 10.5417 16.9958 10.5417 17.25C10.5417 17.5042 10.4407 17.7479 10.261 17.9276C10.0813 18.1074 9.8375 18.2083 9.58333 18.2083ZM9.58333 14.375H8.625C8.37083 14.375 8.12708 14.274 7.94736 14.0943C7.76763 13.9146 7.66667 13.6708 7.66667 13.4167C7.66667 13.1625 7.76763 12.9187 7.94736 12.739C8.12708 12.5593 8.37083 12.4583 8.625 12.4583H9.58333C9.8375 12.4583 10.0813 12.5593 10.261 12.739C10.4407 12.9187 10.5417 13.1625 10.5417 13.4167C10.5417 13.6708 10.4407 13.9146 10.261 14.0943C10.0813 14.274 9.8375 14.375 9.58333 14.375ZM9.58333 10.5417H8.625C8.37083 10.5417 8.12708 10.4407 7.94736 10.261C7.76763 10.0813 7.66667 9.8375 7.66667 9.58333C7.66667 9.32917 7.76763 9.08541 7.94736 8.90569C8.12708 8.72597 8.37083 8.625 8.625 8.625H9.58333C9.8375 8.625 10.0813 8.72597 10.261 8.90569C10.4407 9.08541 10.5417 9.32917 10.5417 9.58333C10.5417 9.8375 10.4407 10.0813 10.261 10.261C10.0813 10.4407 9.8375 10.5417 9.58333 10.5417ZM9.58333 6.70833H8.625C8.37083 6.70833 8.12708 6.60737 7.94736 6.42764C7.76763 6.24792 7.66667 6.00417 7.66667 5.75C7.66667 5.49583 7.76763 5.25208 7.94736 5.07236C8.12708 4.89263 8.37083 4.79167 8.625 4.79167H9.58333C9.8375 4.79167 10.0813 4.89263 10.261 5.07236C10.4407 5.25208 10.5417 5.49583 10.5417 5.75C10.5417 6.00417 10.4407 6.24792 10.261 6.42764C10.0813 6.60737 9.8375 6.70833 9.58333 6.70833ZM18.2083 4.79167H15.3333V23H18.2083C19.4787 22.9985 20.6966 22.4932 21.5949 21.5949C22.4932 20.6966 22.9985 19.4787 23 18.2083V9.58333C22.9985 8.31297 22.4932 7.09508 21.5949 6.19679C20.6966 5.29851 19.4787 4.79319 18.2083 4.79167ZM19.1667 18.2083C18.9771 18.2083 18.7918 18.1521 18.6342 18.0468C18.4766 17.9415 18.3538 17.7918 18.2813 17.6167C18.2087 17.4416 18.1898 17.2489 18.2267 17.063C18.2637 16.8771 18.355 16.7064 18.489 16.5724C18.623 16.4383 18.7938 16.3471 18.9797 16.3101C19.1656 16.2731 19.3583 16.2921 19.5334 16.3646C19.7085 16.4371 19.8582 16.56 19.9635 16.7176C20.0688 16.8752 20.125 17.0605 20.125 17.25C20.125 17.5042 20.024 17.7479 19.8443 17.9276C19.6646 18.1074 19.4208 18.2083 19.1667 18.2083ZM19.1667 14.375C18.9771 14.375 18.7918 14.3188 18.6342 14.2135C18.4766 14.1082 18.3538 13.9585 18.2813 13.7834C18.2087 13.6083 18.1898 13.4156 18.2267 13.2297C18.2637 13.0438 18.355 12.873 18.489 12.739C18.623 12.605 18.7938 12.5137 18.9797 12.4767C19.1656 12.4398 19.3583 12.4587 19.5334 12.5313C19.7085 12.6038 19.8582 12.7266 19.9635 12.8842C20.0688 13.0418 20.125 13.2271 20.125 13.4167C20.125 13.6708 20.024 13.9146 19.8443 14.0943C19.6646 14.274 19.4208 14.375 19.1667 14.375ZM19.1667 10.5417C18.9771 10.5417 18.7918 10.4855 18.6342 10.3802C18.4766 10.2749 18.3538 10.1252 18.2813 9.95007C18.2087 9.77496 18.1898 9.58227 18.2267 9.39637C18.2637 9.21047 18.355 9.03971 18.489 8.90569C18.623 8.77166 18.7938 8.68039 18.9797 8.64341C19.1656 8.60644 19.3583 8.62541 19.5334 8.69795C19.7085 8.77048 19.8582 8.89331 19.9635 9.05091C20.0688 9.20851 20.125 9.39379 20.125 9.58333C20.125 9.8375 20.024 10.0813 19.8443 10.261C19.6646 10.4407 19.4208 10.5417 19.1667 10.5417Z" fill="#374957"/>
</g>
<defs>
<clipPath id="clip0_3315_1666">
<rect width="23" height="23" fill="white"/>
</clipPath>
</defs>
</svg>
