<svg width="32" height="32" viewBox="0 0 32 32" fill="none" xmlns="http://www.w3.org/2000/svg">
<g clip-path="url(#clip0_3315_1634)">
<path d="M32 21.3334V28.0001C32 29.061 31.5786 30.0784 30.8284 30.8285C30.0783 31.5787 29.0609 32.0001 28 32.0001H21.3333C19.4628 31.9982 17.6257 31.5044 16.0062 30.5683C14.3867 29.6322 13.0419 28.2867 12.1067 26.6668C13.1118 26.6596 14.1136 26.5488 15.096 26.3361C15.8442 27.2716 16.7933 28.0268 17.8731 28.5457C18.9528 29.0645 20.1354 29.3338 21.3333 29.3334H28C28.3536 29.3334 28.6928 29.193 28.9428 28.9429C29.1929 28.6929 29.3333 28.3537 29.3333 28.0001V21.3334C29.333 20.1351 29.063 18.9522 28.5432 17.8724C28.0234 16.7927 27.2672 15.8438 26.3307 15.0961C26.5451 14.1139 26.6577 13.1121 26.6667 12.1068C28.2866 13.042 29.6321 14.3868 30.5682 16.0063C31.5043 17.6258 31.9981 19.4629 32 21.3334ZM23.9693 12.8681C24.094 11.1503 23.8475 9.42575 23.2465 7.81169C22.6454 6.19763 21.704 4.73186 20.4861 3.51399C19.2682 2.29611 17.8025 1.35467 16.1884 0.753639C14.5743 0.152605 12.8498 -0.0939382 11.132 0.0307627C8.08789 0.378406 5.2759 1.827 3.22557 4.10375C1.17524 6.38051 0.0280362 9.32833 0 12.3921L0 19.1121C0 22.4881 2.00933 24.0001 4 24.0001H11.6C14.6651 23.9737 17.6147 22.8273 19.8931 20.7768C22.1714 18.7264 23.6212 15.9135 23.9693 12.8681ZM18.6 5.40143C19.5466 6.3501 20.2783 7.49103 20.7458 8.74701C21.2132 10.003 21.4054 11.3447 21.3093 12.6814C21.0248 15.0597 19.8807 17.2519 18.0924 18.8454C16.3042 20.4388 13.9952 21.3237 11.6 21.3334H4C2.76267 21.3334 2.66667 19.6334 2.66667 19.1121V12.3921C2.67778 9.99793 3.56353 7.69037 5.15722 5.90367C6.75091 4.11696 8.94266 2.97432 11.32 2.69076C11.5413 2.67476 11.7627 2.66676 11.984 2.66676C13.2124 2.66562 14.4289 2.90654 15.5641 3.37577C16.6993 3.845 17.7309 4.53333 18.6 5.40143Z" fill="black"/>
</g>
<defs>
<clipPath id="clip0_3315_1634">
<rect width="32" height="32" fill="white"/>
</clipPath>
</defs>
</svg>
