<svg width="175" height="48" viewBox="0 0 175 48" fill="none" xmlns="http://www.w3.org/2000/svg">
<g id="discord_logo.svg" clip-path="url(#clip0_4015_276)">
<g id="Clip path group">
<mask id="mask0_4015_276" style="mask-type:luminance" maskUnits="userSpaceOnUse" x="0" y="7" width="175" height="34">
<g id="clip0">
<path id="Vector" d="M174.77 7.14941H0.661877V40.7252H174.77V7.14941Z" fill="white"/>
</g>
</mask>
<g mask="url(#mask0_4015_276)">
<g id="Group">
<g id="Clip path group_2">
<mask id="mask1_4015_276" style="mask-type:luminance" maskUnits="userSpaceOnUse" x="0" y="7" width="175" height="34">
<g id="clip1">
<path id="Vector_2" d="M174.77 7.14941H0.661877V40.7252H174.77V7.14941Z" fill="white"/>
</g>
</mask>
<g mask="url(#mask1_4015_276)">
<g id="Group_2">
<path id="Vector_3" d="M37.5083 9.96138C34.6927 8.64773 31.682 7.69303 28.5345 7.14941C28.1479 7.84631 27.6963 8.78365 27.385 9.5293C24.039 9.02755 20.7239 9.02755 17.4395 9.5293C17.1282 8.78365 16.6663 7.84631 16.2763 7.14941C13.1254 7.69303 10.1113 8.65124 7.29559 9.96834C1.61636 18.5261 0.0768159 26.8712 0.84659 35.0979C4.61335 37.9028 8.2638 39.6068 11.8526 40.7218C12.7387 39.5057 13.529 38.213 14.2098 36.8506C12.9132 36.3593 11.6713 35.753 10.4979 35.0491C10.8092 34.8192 11.1137 34.5787 11.4079 34.3313C18.5651 37.6694 26.3415 37.6694 33.4132 34.3313C33.7108 34.5787 34.0153 34.8192 34.3232 35.0491C33.1463 35.7564 31.901 36.3627 30.6043 36.8541C31.2852 38.213 32.072 39.5092 32.9616 40.7252C36.5538 39.6102 40.2077 37.9063 43.9744 35.0979C44.8777 25.5611 42.4315 17.2926 37.5083 9.96138ZM15.1849 30.0386C13.0364 30.0386 11.2744 28.0385 11.2744 25.6029C11.2744 23.1673 12.9988 21.1638 15.1849 21.1638C17.3711 21.1638 19.133 23.1638 19.0954 25.6029C19.0988 28.0385 17.3711 30.0386 15.1849 30.0386ZM29.6361 30.0386C27.4876 30.0386 25.7257 28.0385 25.7257 25.6029C25.7257 23.1673 27.4499 21.1638 29.6361 21.1638C31.8223 21.1638 33.5842 23.1638 33.5466 25.6029C33.5466 28.0385 31.8223 30.0386 29.6361 30.0386Z" fill="#5865F2"/>
<path id="Vector_4" d="M59.113 15.7148H68.4527C70.7042 15.7148 72.6062 16.0737 74.1666 16.788C75.7229 17.5023 76.8898 18.4989 77.6631 19.7742C78.4359 21.0495 78.8258 22.5094 78.8258 24.1541C78.8258 25.7639 78.4222 27.2238 77.6148 28.5305C76.8075 29.8406 75.5792 30.8755 73.9269 31.6386C72.2747 32.4017 70.2283 32.7849 67.7825 32.7849H59.113V15.7148ZM67.6865 28.4469C69.2022 28.4469 70.3691 28.0601 71.183 27.29C71.9974 26.5165 72.4047 25.4642 72.4047 24.1297C72.4047 22.8927 72.0416 21.9066 71.3165 21.1679C70.5915 20.4292 69.4931 20.0564 68.0251 20.0564H65.1035V28.4469H67.6865Z" fill="#5865F2"/>
<path id="Vector_5" d="M92.8087 32.7642C91.5155 32.4227 90.3486 31.9279 89.3123 31.2763V27.2275C90.0958 27.8442 91.1458 28.3529 92.4629 28.7536C93.7801 29.1508 95.0531 29.3494 96.2844 29.3494C96.8591 29.3494 97.2938 29.2728 97.5878 29.1195C97.8823 28.9662 98.0296 28.7815 98.0296 28.5689C98.0296 28.325 97.9509 28.123 97.7899 27.9591C97.6289 27.7954 97.3177 27.6595 96.8562 27.5445L93.9822 26.8859C92.3365 26.4957 91.1696 25.9556 90.4756 25.2622C89.7809 24.5723 89.4351 23.6663 89.4351 22.5444C89.4351 21.6001 89.7362 20.7813 90.3456 20.0809C90.9508 19.3806 91.813 18.8404 92.9316 18.4606C94.0508 18.0774 95.3572 17.8857 96.8591 17.8857C98.2001 17.8857 99.4284 18.0321 100.548 18.3248C101.666 18.6175 102.59 18.9903 103.326 19.4467V23.2761C102.573 22.8197 101.71 22.4608 100.725 22.189C99.7433 21.9207 98.7344 21.7883 97.6939 21.7883C96.1919 21.7883 95.443 22.0496 95.443 22.5688C95.443 22.8127 95.5593 22.9939 95.7918 23.1158C96.0244 23.2378 96.4519 23.3632 97.0714 23.4956L99.466 23.9347C101.03 24.21 102.196 24.6943 102.962 25.3842C103.729 26.0741 104.112 27.0951 104.112 28.447C104.112 29.9278 103.479 31.1021 102.21 31.9732C100.941 32.8443 99.141 33.2798 96.8079 33.2798C95.4359 33.2764 94.102 33.1056 92.8087 32.7642Z" fill="#5865F2"/>
<path id="Vector_6" d="M109.764 32.2514C108.393 31.5684 107.356 30.6416 106.665 29.4709C105.974 28.3001 105.625 26.983 105.625 25.5195C105.625 24.0561 105.984 22.746 106.702 21.5926C107.421 20.4393 108.474 19.5333 109.864 18.8748C111.252 18.2162 112.912 17.8887 114.845 17.8887C117.239 17.8887 119.227 18.4009 120.808 19.4253V23.8888C120.25 23.4986 119.6 23.1815 118.858 22.9376C118.115 22.6937 117.322 22.5717 116.473 22.5717C114.988 22.5717 113.829 22.847 112.99 23.401C112.152 23.955 111.732 24.6763 111.732 25.5718C111.732 26.4498 112.138 27.1677 112.953 27.7322C113.767 28.2931 114.947 28.5754 116.497 28.5754C117.294 28.5754 118.081 28.4569 118.858 28.2235C119.631 27.9865 120.298 27.6973 120.856 27.3558V31.673C119.101 32.7462 117.065 33.2828 114.749 33.2828C112.799 33.2758 111.136 32.9344 109.764 32.2514Z" fill="#5865F2"/>
<path id="Vector_7" d="M126.782 32.2516C125.399 31.5686 124.346 30.6348 123.62 29.4466C122.895 28.2584 122.529 26.9344 122.529 25.4709C122.529 24.0075 122.892 22.7008 123.62 21.5544C124.349 20.4081 125.396 19.5091 126.771 18.8575C128.143 18.2059 129.782 17.8818 131.68 17.8818C133.58 17.8818 135.218 18.2059 136.59 18.8575C137.962 19.5091 139.009 20.4011 139.728 21.5405C140.446 22.6799 140.805 23.9865 140.805 25.4674C140.805 26.9309 140.446 28.255 139.728 29.4431C139.009 30.6313 137.959 31.5651 136.576 32.248C135.194 32.931 133.562 33.2725 131.678 33.2725C129.792 33.2725 128.16 32.9345 126.782 32.2516ZM134.058 27.9239C134.64 27.3316 134.934 26.5476 134.934 25.572C134.934 24.5963 134.643 23.8193 134.058 23.2443C133.477 22.6659 132.683 22.3767 131.678 22.3767C130.654 22.3767 129.854 22.6659 129.269 23.2443C128.687 23.8228 128.396 24.5963 128.396 25.572C128.396 26.5476 128.687 27.3316 129.269 27.9239C129.851 28.5163 130.654 28.8159 131.678 28.8159C132.683 28.8124 133.477 28.5163 134.058 27.9239Z" fill="#5865F2"/>
<path id="Vector_8" d="M155.196 18.7885V24.0569C154.587 23.6492 153.8 23.4471 152.825 23.4471C151.549 23.4471 150.564 23.8409 149.879 24.6284C149.192 25.4159 148.849 26.6424 148.849 28.3009V32.7888H142.982V18.5202H148.73V23.0569C149.048 21.3983 149.565 20.1753 150.276 19.3843C150.985 18.5968 151.901 18.2031 153.017 18.2031C153.862 18.2031 154.587 18.3983 155.196 18.7885Z" fill="#5865F2"/>
<path id="Vector_9" d="M174.69 15.2266V32.788H168.822V29.5928C168.326 30.7949 167.573 31.7114 166.561 32.3385C165.548 32.9623 164.296 33.2758 162.811 33.2758C161.484 33.2758 160.328 32.9483 159.338 32.2897C158.35 31.6312 157.587 30.7288 157.05 29.5824C156.516 28.436 156.246 27.1398 156.246 25.6903C156.229 24.1955 156.513 22.854 157.098 21.6658C157.68 20.4776 158.504 19.5508 159.564 18.8852C160.625 18.2197 161.836 17.8852 163.194 17.8852C165.99 17.8852 167.864 19.1221 168.822 21.5926V15.2266H174.69ZM167.947 27.8262C168.545 27.2339 168.843 26.4638 168.843 25.5231C168.843 24.6136 168.552 23.8714 167.97 23.3035C167.389 22.7355 166.591 22.4498 165.589 22.4498C164.6 22.4498 163.81 22.739 163.218 23.3174C162.626 23.8958 162.332 24.6449 162.332 25.5718C162.332 26.4987 162.626 27.2548 163.218 27.8402C163.81 28.4255 164.59 28.7182 165.565 28.7182C166.554 28.7148 167.347 28.4186 167.947 27.8262Z" fill="#5865F2"/>
<path id="Vector_10" d="M83.7707 20.0386C85.386 20.0386 86.696 18.8404 86.696 17.3625C86.696 15.8846 85.386 14.6865 83.7707 14.6865C82.1549 14.6865 80.8455 15.8846 80.8455 17.3625C80.8455 18.8404 82.1549 20.0386 83.7707 20.0386Z" fill="#5865F2"/>
<path id="Vector_11" d="M80.8416 21.8818C82.6339 22.6693 84.858 22.7041 86.6915 21.8818V32.8647H80.8416V21.8818Z" fill="#5865F2"/>
</g>
</g>
</g>
</g>
</g>
</g>
</g>
<defs>
<clipPath id="clip0_4015_276">
<rect width="174.108" height="47.5657" fill="white" transform="translate(0.661743 0.154297)"/>
</clipPath>
</defs>
</svg>
