<svg width="18" height="19" viewBox="0 0 18 19" fill="none" xmlns="http://www.w3.org/2000/svg">
<g clip-path="url(#clip0_3315_1543)">
<path d="M12.8363 6.53772C12.6213 6.59485 12.428 6.71446 12.281 6.88142C12.1339 7.04838 12.0397 7.25519 12.0101 7.47571C11.9806 7.69623 12.0172 7.92056 12.1151 8.12032C12.2131 8.32008 12.3681 8.48631 12.5605 8.59799C12.7529 8.70968 12.9741 8.76179 13.1962 8.74775C13.4182 8.73372 13.6311 8.65415 13.808 8.51913C13.9848 8.3841 14.1176 8.19967 14.1896 7.98916C14.2617 7.77865 14.2696 7.55152 14.2126 7.33647C14.1747 7.19365 14.109 7.05969 14.0193 6.94224C13.9297 6.8248 13.8177 6.72618 13.6899 6.652C13.5621 6.57783 13.421 6.52956 13.2745 6.50995C13.128 6.49034 12.9791 6.49978 12.8363 6.53772Z" fill="#91909B"/>
<path d="M9.08617 4.28772C8.87114 4.34485 8.67788 4.46446 8.53082 4.63142C8.38377 4.79838 8.28952 5.00519 8.26 5.22572C8.23047 5.44624 8.267 5.67056 8.36496 5.87032C8.46292 6.07009 8.61791 6.23632 8.81034 6.348C9.00276 6.45968 9.22399 6.5118 9.44603 6.49776C9.66808 6.48372 9.88097 6.40416 10.0578 6.26913C10.2346 6.1341 10.3675 5.94968 10.4395 5.73917C10.5115 5.52866 10.5195 5.30152 10.4624 5.08647C10.4245 4.94365 10.3589 4.80969 10.2692 4.69224C10.1795 4.5748 10.0676 4.47618 9.93976 4.402C9.81196 4.32783 9.67079 4.27956 9.52433 4.25995C9.37787 4.24034 9.22898 4.24978 9.08617 4.28772Z" fill="#91909B"/>
<path d="M5.33639 6.53772C5.12137 6.59485 4.92811 6.71446 4.78105 6.88142C4.634 7.04838 4.53975 7.25519 4.51022 7.47571C4.4807 7.69623 4.51723 7.92056 4.61519 8.12032C4.71314 8.32008 4.86814 8.48631 5.06056 8.59799C5.25299 8.70968 5.47421 8.76179 5.69626 8.74775C5.9183 8.73372 6.1312 8.65415 6.30803 8.51913C6.48486 8.3841 6.61768 8.19967 6.6897 7.98916C6.76172 7.77865 6.7697 7.55152 6.71264 7.33647C6.67474 7.19365 6.60908 7.05969 6.5194 6.94224C6.42972 6.8248 6.31778 6.72618 6.18998 6.652C6.06218 6.57783 5.92102 6.52956 5.77456 6.50995C5.6281 6.49034 5.47921 6.49978 5.33639 6.53772Z" fill="#91909B"/>
<path d="M5.33639 11.0377C5.12137 11.0949 4.92811 11.2145 4.78105 11.3814C4.634 11.5484 4.53975 11.7552 4.51022 11.9757C4.4807 12.1962 4.51723 12.4206 4.61519 12.6203C4.71314 12.8201 4.86814 12.9863 5.06056 13.098C5.25299 13.2097 5.47421 13.2618 5.69626 13.2478C5.9183 13.2337 6.1312 13.1542 6.30803 13.0191C6.48486 12.8841 6.61768 12.6997 6.6897 12.4892C6.76172 12.2787 6.7697 12.0515 6.71264 11.8365C6.67474 11.6936 6.60908 11.5597 6.5194 11.4422C6.42972 11.3248 6.31778 11.2262 6.18998 11.152C6.06218 11.0778 5.92102 11.0296 5.77456 11.0099C5.6281 10.9903 5.47921 10.9998 5.33639 11.0377Z" fill="#91909B"/>
<path d="M9.37511 0.504948C8.1676 0.462961 6.964 0.66454 5.83607 1.09767C4.70813 1.53079 3.67895 2.1866 2.80989 3.02599C1.94082 3.86537 1.24967 4.87115 0.777633 5.98337C0.305595 7.09558 0.0623377 8.29146 0.0623627 9.4997C0.0651416 11.8858 1.01425 14.1734 2.70147 15.8606C4.3887 17.5478 6.67627 18.4969 9.06236 18.4997C9.31586 18.4997 9.56486 18.4832 9.81236 18.4622C10.0002 18.4464 10.1751 18.3604 10.3024 18.2214C10.4297 18.0825 10.5 17.9007 10.4994 17.7122L10.4754 15.0212C10.4693 14.4894 10.6218 13.9679 10.9135 13.5232C11.2052 13.0786 11.6229 12.7309 12.113 12.5247C12.6032 12.3185 13.1438 12.2631 13.6656 12.3655C14.1875 12.4679 14.667 12.7235 15.0429 13.0997L15.1179 13.1747C15.2881 13.3464 15.499 13.4723 15.731 13.5406C15.963 13.6089 16.2085 13.6175 16.4446 13.5654C16.677 13.5167 16.8933 13.4103 17.0738 13.256C17.2542 13.1018 17.393 12.9046 17.4774 12.6827C17.8914 11.5954 18.0894 10.4378 18.0601 9.2747C17.9757 6.99021 17.0361 4.82081 15.4275 3.1965C13.8188 1.57219 11.6587 0.611532 9.37511 0.504948ZM16.1116 12.0549L16.1011 12.0444C15.5149 11.4592 14.7678 11.0615 13.9549 10.9021C13.142 10.7426 12.3001 10.8286 11.5362 11.149C10.7723 11.4695 10.1209 12.0099 9.66507 12.7015C9.2092 13.3932 8.96938 14.2048 8.97611 15.0332L8.99411 16.9997C7.00499 16.9907 5.10089 16.192 3.7007 14.7791C2.3005 13.3663 1.51891 11.4551 1.52786 9.46595C1.53681 7.47682 2.33557 5.57272 3.74843 4.17253C5.16128 2.77234 7.07249 1.99075 9.06161 1.9997C9.14936 1.9997 9.23786 1.9997 9.32636 2.0042C11.2287 2.09355 13.028 2.89425 14.3677 4.24765C15.7075 5.60104 16.49 7.40835 16.5601 9.31145C16.5849 10.2441 16.4335 11.1731 16.1139 12.0497L16.1116 12.0549Z" fill="#91909B"/>
</g>
<defs>
<clipPath id="clip0_3315_1543">
<rect width="18" height="18" fill="white" transform="translate(0 0.5)"/>
</clipPath>
</defs>
</svg>
