<svg width="18" height="19" viewBox="0 0 18 19" fill="none" xmlns="http://www.w3.org/2000/svg">
<g clip-path="url(#clip0_3315_1540)">
<path d="M17.7801 17.2203L13.3033 12.7436C14.5233 11.2515 15.1231 9.34764 14.9787 7.42574C14.8343 5.50384 13.9567 3.71097 12.5275 2.41796C11.0983 1.12495 9.22678 0.430738 7.30007 0.478912C5.37336 0.527086 3.53886 1.31396 2.17605 2.67678C0.813229 4.0396 0.0263534 5.87409 -0.0218205 7.8008C-0.0699943 9.72751 0.624219 11.599 1.91723 13.0283C3.21023 14.4575 5.00311 15.3351 6.92501 15.4795C8.84691 15.6239 10.7508 15.024 12.2428 13.8041L16.7196 18.2808C16.861 18.4174 17.0505 18.493 17.2471 18.4913C17.4438 18.4896 17.6319 18.4107 17.771 18.2717C17.91 18.1326 17.9889 17.9445 17.9906 17.7479C17.9923 17.5512 17.9167 17.3618 17.7801 17.2203ZM7.49984 14.0006C6.31315 14.0006 5.15311 13.6487 4.16642 12.9894C3.17972 12.3301 2.41069 11.393 1.95656 10.2967C1.50243 9.20031 1.38361 7.99391 1.61512 6.83003C1.84664 5.66614 2.41808 4.59704 3.2572 3.75793C4.09631 2.91881 5.16541 2.34737 6.3293 2.11586C7.49318 1.88435 8.69958 2.00317 9.79594 2.45729C10.8923 2.91142 11.8294 3.68045 12.4887 4.66715C13.1479 5.65384 13.4998 6.81388 13.4998 8.00057C13.4981 9.59132 12.8653 11.1164 11.7405 12.2412C10.6157 13.3661 9.09059 13.9988 7.49984 14.0006Z" fill="#91909B"/>
<path d="M9.74999 7.25H8.24999V5.75C8.24999 5.55109 8.17098 5.36032 8.03032 5.21967C7.88967 5.07902 7.69891 5 7.49999 5C7.30108 5 7.11032 5.07902 6.96967 5.21967C6.82901 5.36032 6.75 5.55109 6.75 5.75V7.25H5.25C5.05109 7.25 4.86032 7.32901 4.71967 7.46967C4.57902 7.61032 4.5 7.80108 4.5 7.99999C4.5 8.19891 4.57902 8.38967 4.71967 8.53032C4.86032 8.67098 5.05109 8.74999 5.25 8.74999H6.75V10.25C6.75 10.4489 6.82901 10.6397 6.96967 10.7803C7.11032 10.921 7.30108 11 7.49999 11C7.69891 11 7.88967 10.921 8.03032 10.7803C8.17098 10.6397 8.24999 10.4489 8.24999 10.25V8.74999H9.74999C9.9489 8.74999 10.1397 8.67098 10.2803 8.53032C10.421 8.38967 10.5 8.19891 10.5 7.99999C10.5 7.80108 10.421 7.61032 10.2803 7.46967C10.1397 7.32901 9.9489 7.25 9.74999 7.25Z" fill="#91909B"/>
</g>
<defs>
<clipPath id="clip0_3315_1540">
<rect width="18" height="18" fill="white" transform="translate(0 0.5)"/>
</clipPath>
</defs>
</svg>
