<svg width="18" height="19" viewBox="0 0 18 19" fill="none" xmlns="http://www.w3.org/2000/svg">
<path d="M12.75 0.5C12.5511 0.5 12.3603 0.579018 12.2197 0.71967C12.079 0.860322 12 1.05109 12 1.25C12 3.46175 10.0628 4.25 8.25 4.25H3C2.20435 4.25 1.44129 4.56607 0.87868 5.12868C0.316071 5.69129 0 6.45435 0 7.25L0 8.75C0.00163812 9.19905 0.104596 9.64195 0.301202 10.0457C0.497807 10.4494 0.782991 10.8036 1.1355 11.0817L3.8145 17.0607C4.00503 17.4891 4.31563 17.853 4.7087 18.1084C5.10178 18.3638 5.56047 18.4999 6.02925 18.5C6.40223 18.4998 6.76923 18.4062 7.09685 18.228C7.42446 18.0497 7.70229 17.7923 7.90504 17.4792C8.10778 17.1662 8.22901 16.8074 8.2577 16.4355C8.28638 16.0636 8.2216 15.6905 8.06925 15.35L6.41925 11.75H8.25C10.0628 11.75 12 12.5382 12 14.75C12 14.9489 12.079 15.1397 12.2197 15.2803C12.3603 15.421 12.5511 15.5 12.75 15.5C12.9489 15.5 13.1397 15.421 13.2803 15.2803C13.421 15.1397 13.5 14.9489 13.5 14.75V1.25C13.5 1.05109 13.421 0.860322 13.2803 0.71967C13.1397 0.579018 12.9489 0.5 12.75 0.5V0.5ZM6.70275 15.9642C6.75243 16.0764 6.77332 16.1993 6.76353 16.3216C6.75375 16.4439 6.71359 16.5618 6.6467 16.6647C6.57982 16.7675 6.48832 16.8521 6.3805 16.9106C6.27268 16.9692 6.15195 16.9999 6.02925 17C5.8503 16.9999 5.67523 16.9478 5.52531 16.8501C5.3754 16.7523 5.25709 16.6132 5.18475 16.4495L3.07875 11.75H4.76925L6.70275 15.9642ZM12 11.45C10.9285 10.6244 9.60178 10.1998 8.25 10.25H3C2.60218 10.25 2.22064 10.092 1.93934 9.81066C1.65804 9.52936 1.5 9.14782 1.5 8.75V7.25C1.5 6.85218 1.65804 6.47064 1.93934 6.18934C2.22064 5.90804 2.60218 5.75 3 5.75H8.25C9.60132 5.80122 10.928 5.37802 12 4.55375V11.45ZM17.925 12.089C17.881 12.1772 17.8201 12.2558 17.7457 12.3204C17.6713 12.3851 17.5849 12.4344 17.4914 12.4656C17.3979 12.4968 17.2992 12.5093 17.2009 12.5023C17.1026 12.4953 17.0066 12.4691 16.9185 12.425L15.4185 11.675C15.2405 11.5861 15.1051 11.4301 15.042 11.2413C14.979 11.0526 14.9936 10.8465 15.0825 10.6685C15.1714 10.4905 15.3274 10.3551 15.5162 10.292C15.7049 10.229 15.911 10.2436 16.089 10.3325L17.589 11.0825C17.7661 11.1714 17.9009 11.3267 17.9638 11.5146C18.0268 11.7025 18.0128 11.9076 17.925 12.0852V12.089ZM15.0825 5.339C15.0384 5.25086 15.0122 5.1549 15.0052 5.0566C14.9982 4.9583 15.0107 4.85959 15.0419 4.76612C15.0731 4.67265 15.1224 4.58624 15.1871 4.51184C15.2517 4.43743 15.3303 4.37649 15.4185 4.3325L16.9185 3.5825C17.0965 3.49359 17.3026 3.47903 17.4913 3.54205C17.6801 3.60506 17.8361 3.74047 17.925 3.9185C18.0139 4.09653 18.0285 4.30258 17.9655 4.49134C17.9024 4.68009 17.767 4.83609 17.589 4.925L16.089 5.675C16.0009 5.71907 15.9049 5.74533 15.8066 5.7523C15.7083 5.75926 15.6096 5.74678 15.5161 5.71558C15.4226 5.68437 15.3362 5.63505 15.2618 5.57044C15.1874 5.50582 15.1265 5.42718 15.0825 5.339ZM15 8C15 7.80109 15.079 7.61032 15.2197 7.46967C15.3603 7.32902 15.5511 7.25 15.75 7.25H17.25C17.4489 7.25 17.6397 7.32902 17.7803 7.46967C17.921 7.61032 18 7.80109 18 8C18 8.19891 17.921 8.38968 17.7803 8.53033C17.6397 8.67098 17.4489 8.75 17.25 8.75H15.75C15.5511 8.75 15.3603 8.67098 15.2197 8.53033C15.079 8.38968 15 8.19891 15 8Z" fill="#91909B"/>
</svg>
