<svg width="18" height="19" viewBox="0 0 18 19" fill="none" xmlns="http://www.w3.org/2000/svg">
<g clip-path="url(#clip0_3779_463)">
<path d="M13.4999 7.2979C13.5 6.99622 13.4404 6.6975 13.3246 6.41895C13.2087 6.14041 13.0389 5.88753 12.8249 5.6749C12.387 5.25704 11.805 5.0239 11.1997 5.0239C10.5944 5.0239 10.0123 5.25704 9.57442 5.6749L0.674915 14.5766C0.268729 15.0122 0.0474962 15.5884 0.0578423 16.1839C0.0681884 16.7793 0.309305 17.3475 0.730377 17.7687C1.15145 18.1899 1.71958 18.4311 2.31504 18.4416C2.9105 18.4521 3.48678 18.231 3.92241 17.8249L12.8249 8.92315C13.0393 8.71031 13.2093 8.45708 13.3251 8.17811C13.441 7.89914 13.5004 7.59997 13.4999 7.2979ZM2.86192 16.7659C2.7103 16.9104 2.50888 16.991 2.29942 16.991C2.08995 16.991 1.88853 16.9104 1.73692 16.7659C1.58798 16.6166 1.50434 16.4143 1.50434 16.2034C1.50434 15.9925 1.58798 15.7902 1.73692 15.6409L7.56366 9.8134L8.69242 10.9422L2.86192 16.7659ZM11.7659 7.8619L9.74992 9.87865L8.62492 8.7499L10.6417 6.7339C10.7136 6.65177 10.8015 6.58528 10.9002 6.53855C10.9988 6.49181 11.106 6.46583 11.2151 6.46221C11.3242 6.45859 11.4329 6.4774 11.5344 6.5175C11.6359 6.55759 11.7281 6.6181 11.8053 6.69528C11.8825 6.77246 11.943 6.86467 11.9831 6.96619C12.0232 7.06771 12.042 7.17638 12.0384 7.28547C12.0347 7.39456 12.0088 7.50174 11.962 7.60038C11.9153 7.69902 11.8488 7.78701 11.7667 7.8589L11.7659 7.8619ZM3.64716 2.64115L4.80966 2.30965L5.14116 1.14715C5.19457 0.960616 5.30726 0.79654 5.46219 0.679737C5.61713 0.562934 5.80588 0.499756 5.99992 0.499756C6.19395 0.499756 6.3827 0.562934 6.53764 0.679737C6.69257 0.79654 6.80526 0.960616 6.85867 1.14715L7.19016 2.30965L8.35266 2.64115C8.5392 2.69456 8.70328 2.80725 8.82008 2.96218C8.93688 3.11712 9.00006 3.30587 9.00006 3.4999C9.00006 3.69393 8.93688 3.88269 8.82008 4.03762C8.70328 4.19256 8.5392 4.30525 8.35266 4.35865L7.19016 4.69015L6.85867 5.85265C6.80526 6.03919 6.69257 6.20326 6.53764 6.32007C6.3827 6.43687 6.19395 6.50005 5.99992 6.50005C5.80588 6.50005 5.61713 6.43687 5.46219 6.32007C5.30726 6.20326 5.19457 6.03919 5.14116 5.85265L4.80966 4.69015L3.64716 4.35865C3.46063 4.30525 3.29655 4.19256 3.17975 4.03762C3.06295 3.88269 2.99977 3.69393 2.99977 3.4999C2.99977 3.30587 3.06295 3.11712 3.17975 2.96218C3.29655 2.80725 3.46063 2.69456 3.64716 2.64115ZM17.3527 13.3587L16.1902 13.6902L15.8587 14.8526C15.8053 15.0392 15.6926 15.2033 15.5376 15.3201C15.3827 15.4369 15.1939 15.5 14.9999 15.5C14.8059 15.5 14.6171 15.4369 14.4622 15.3201C14.3073 15.2033 14.1946 15.0392 14.1412 14.8526L13.8097 13.6902L12.6472 13.3587C12.4606 13.3052 12.2966 13.1926 12.1798 13.0376C12.0629 12.8827 11.9998 12.6939 11.9998 12.4999C11.9998 12.3059 12.0629 12.1171 12.1798 11.9622C12.2966 11.8072 12.4606 11.6946 12.6472 11.6412L13.8097 11.3097L14.1412 10.1472C14.1946 9.96062 14.3073 9.79654 14.4622 9.67974C14.6171 9.56293 14.8059 9.49975 14.9999 9.49975C15.1939 9.49975 15.3827 9.56293 15.5376 9.67974C15.6926 9.79654 15.8053 9.96062 15.8587 10.1472L16.1902 11.3097L17.3527 11.6412C17.5392 11.6946 17.7033 11.8072 17.8201 11.9622C17.9369 12.1171 18.0001 12.3059 18.0001 12.4999C18.0001 12.6939 17.9369 12.8827 17.8201 13.0376C17.7033 13.1926 17.5392 13.3052 17.3527 13.3587ZM13.3162 2.3749L14.3332 2.08465L14.6249 1.06615C14.6724 0.904015 14.7711 0.761631 14.9064 0.660337C15.0416 0.559043 15.206 0.504293 15.3749 0.504293C15.5439 0.504293 15.7083 0.559043 15.8435 0.660337C15.9787 0.761631 16.0774 0.904015 16.1249 1.06615L16.4152 2.08315L17.4322 2.3734C17.5943 2.42088 17.7367 2.51963 17.838 2.65484C17.9393 2.79006 17.994 2.95446 17.994 3.1234C17.994 3.29235 17.9393 3.45675 17.838 3.59196C17.7367 3.72717 17.5943 3.82592 17.4322 3.8734L16.4152 4.16365L16.1249 5.1829C16.0774 5.34504 15.9787 5.48742 15.8435 5.58872C15.7083 5.69001 15.5439 5.74476 15.3749 5.74476C15.206 5.74476 15.0416 5.69001 14.9064 5.58872C14.7711 5.48742 14.6724 5.34504 14.6249 5.1829L14.3347 4.16665L13.3162 3.8749C13.154 3.82742 13.0116 3.72867 12.9104 3.59346C12.8091 3.45825 12.7543 3.29385 12.7543 3.1249C12.7543 2.95596 12.8091 2.79156 12.9104 2.65634C13.0116 2.52113 13.154 2.42238 13.3162 2.3749Z" fill="#91909B"/>
</g>
<defs>
<clipPath id="clip0_3779_463">
<rect width="18" height="18" fill="white" transform="translate(0 0.5)"/>
</clipPath>
</defs>
</svg>
