<svg width="44" height="44" viewBox="0 0 44 44" fill="none" xmlns="http://www.w3.org/2000/svg">
<rect width="44" height="44" rx="12" fill="white"/>
<g clip-path="url(#clip0_3315_2474)">
<path d="M28 16.9997C28 17.1974 27.9414 17.3908 27.8315 17.5552C27.7216 17.7197 27.5654 17.8478 27.3827 17.9235C27.2 17.9992 26.9989 18.019 26.8049 17.9804C26.6109 17.9419 26.4327 17.8466 26.2929 17.7068C26.153 17.5669 26.0578 17.3887 26.0192 17.1947C25.9806 17.0008 26.0004 16.7997 26.0761 16.617C26.1518 16.4342 26.28 16.2781 26.4444 16.1682C26.6089 16.0583 26.8022 15.9997 27 15.9997C27.2652 15.9997 27.5196 16.105 27.7071 16.2925C27.8946 16.4801 28 16.7344 28 16.9997ZM24 18.9997C23.8022 18.9997 23.6089 19.0583 23.4444 19.1682C23.28 19.2781 23.1518 19.4342 23.0761 19.617C23.0004 19.7997 22.9806 20.0008 23.0192 20.1947C23.0578 20.3887 23.153 20.5669 23.2929 20.7068C23.4327 20.8466 23.6109 20.9419 23.8049 20.9804C23.9989 21.019 24.2 20.9992 24.3827 20.9235C24.5654 20.8478 24.7216 20.7197 24.8315 20.5552C24.9414 20.3908 25 20.1974 25 19.9997C25 19.7344 24.8946 19.4801 24.7071 19.2925C24.5196 19.105 24.2652 18.9997 24 18.9997ZM21 21.9997C20.8022 21.9997 20.6089 22.0583 20.4444 22.1682C20.28 22.2781 20.1518 22.4342 20.0761 22.617C20.0004 22.7997 19.9806 23.0008 20.0192 23.1947C20.0578 23.3887 20.153 23.5669 20.2929 23.7068C20.4327 23.8466 20.6109 23.9419 20.8049 23.9804C20.9989 24.019 21.2 23.9992 21.3827 23.9235C21.5654 23.8478 21.7216 23.7197 21.8315 23.5552C21.9414 23.3908 22 23.1974 22 22.9997C22 22.7344 21.8946 22.4801 21.7071 22.2925C21.5196 22.105 21.2652 21.9997 21 21.9997ZM33.866 12.9577L33.791 13.1687C32.289 17.3367 30.848 21.2997 28 24.8197V24.9997C27.9982 26.5314 27.6772 28.0459 27.0574 29.4466C26.4375 30.8472 25.5325 32.1033 24.4 33.1347C23.8005 33.6877 23.0157 33.9963 22.2 33.9997C21.3511 33.997 20.5378 33.6582 19.9381 33.0574C19.3383 32.4565 19.0011 31.6426 19 30.7937V29.6427C18.2621 29.4047 17.5904 28.9967 17.039 28.4517L17 28.4137L14.707 30.7067C14.5184 30.8888 14.2658 30.9896 14.0036 30.9873C13.7414 30.985 13.4906 30.8799 13.3052 30.6945C13.1198 30.5091 13.0146 30.2583 13.0123 29.9961C13.01 29.7339 13.1108 29.4813 13.293 29.2927L15.586 26.9997L15.547 26.9617C15.0016 26.4096 14.5927 25.7378 14.353 24.9997H13.363C12.4715 24.9989 11.6167 24.6444 10.9862 24.0141C10.3557 23.3838 10.0011 22.5292 10 21.6377C10.0018 20.767 10.3375 19.9301 10.938 19.2997C11.9835 18.2259 13.2388 17.3788 14.6258 16.8111C16.0127 16.2434 17.5017 15.9672 19 15.9997H19.18C22.7 13.1527 26.66 11.7117 30.826 10.2107L31.042 10.1337C31.4362 9.98873 31.8636 9.95968 32.2738 10.0499C32.684 10.1402 33.0598 10.3459 33.3568 10.6429C33.6537 10.9399 33.8595 11.3157 33.9497 11.7258C34.04 12.136 34.0109 12.5635 33.866 12.9577ZM13.363 22.9997H14.1C14.1751 22.1186 14.4826 21.2732 14.991 20.5497C15.549 19.7468 16.1531 18.9768 16.8 18.2437C15.1225 18.5909 13.589 19.4364 12.4 20.6697C12.1471 20.9288 12.0038 21.2755 12 21.6377C12.0005 21.9989 12.1443 22.3452 12.3999 22.6005C12.6554 22.8558 13.0018 22.9994 13.363 22.9997ZM25.7 27.2517C24.9827 27.8795 24.2309 28.4668 23.448 29.0107C22.7239 29.5141 21.8791 29.8164 21 29.8867V30.7937C21.0005 31.1135 21.1279 31.4201 21.3542 31.6462C21.5804 31.8723 21.8871 31.9994 22.207 31.9997C22.5241 31.995 22.828 31.8719 23.059 31.6547C24.3482 30.4746 25.2659 28.9446 25.7 27.2517ZM31.937 12.0627C31.9104 12.033 31.8751 12.0124 31.8362 12.0038C31.7973 11.9952 31.7567 11.999 31.72 12.0147L31.505 12.0927C26.661 13.8377 22.478 15.3457 18.876 18.9467C18.0497 19.7987 17.2977 20.7197 16.628 21.6997C16.2207 22.2778 16.0307 22.9813 16.0916 23.6859C16.1526 24.3906 16.4605 25.051 16.961 25.5507L18.453 27.0407C18.9524 27.5408 19.6124 27.8486 20.3166 27.9097C21.0208 27.9708 21.7239 27.7813 22.302 27.3747C23.2814 26.7051 24.2017 25.953 25.053 25.1267C28.653 21.5267 30.163 17.3397 31.909 12.4937L31.985 12.2827C32.0012 12.2456 32.0053 12.2044 31.9966 12.1649C31.988 12.1254 31.9671 12.0896 31.937 12.0627Z" fill="#636B78"/>
</g>
<defs>
<clipPath id="clip0_3315_2474">
<rect width="24" height="24" fill="white" transform="translate(10 10)"/>
</clipPath>
</defs>
</svg>
