<svg width="44" height="44" viewBox="0 0 44 44" fill="none" xmlns="http://www.w3.org/2000/svg">
<rect width="44" height="44" rx="12" fill="#E2E0FF"/>
<g clip-path="url(#clip0_3315_2478)">
<path d="M33.351 10.6482C33.0559 10.3499 32.6812 10.1428 32.2716 10.0515C31.8621 9.96014 31.4349 9.98853 31.041 10.1332L30.825 10.2102C25.9881 11.7835 21.5845 14.4627 17.964 18.0352C17.0554 18.9679 16.2287 19.9769 15.493 21.0512C14.093 23.0512 13.827 25.2402 15.547 26.9612L15.586 26.9992L13.293 29.2922C13.1055 29.4798 13.0002 29.7341 13.0002 29.9992C13.0002 30.2644 13.1055 30.5187 13.293 30.7062C13.4805 30.8937 13.7348 30.999 14 30.999C14.2652 30.999 14.5195 30.8937 14.707 30.7062L17 28.4132L17.038 28.4522C18.759 30.1722 20.953 29.9042 22.948 28.5062C24.0223 27.7706 25.0314 26.9439 25.964 26.0352C29.5366 22.4144 32.2159 18.0105 33.789 13.1732L33.866 12.9572C34.0107 12.5635 34.0392 12.1365 33.9478 11.7271C33.8565 11.3176 33.6493 10.9431 33.351 10.6482ZM21 23.9992C20.8022 23.9992 20.6089 23.9406 20.4444 23.8307C20.28 23.7208 20.1518 23.5647 20.0761 23.3819C20.0004 23.1992 19.9806 22.9981 20.0192 22.8042C20.0578 22.6102 20.153 22.432 20.2929 22.2921C20.4327 22.1523 20.6109 22.057 20.8049 22.0185C20.9989 21.9799 21.2 21.9997 21.3827 22.0754C21.5654 22.151 21.7216 22.2792 21.8315 22.4437C21.9414 22.6081 22 22.8015 22 22.9992C22 23.2645 21.8946 23.5188 21.7071 23.7063C21.5196 23.8939 21.2652 23.9992 21 23.9992ZM24 20.9992C23.8022 20.9992 23.6089 20.9406 23.4444 20.8307C23.28 20.7208 23.1518 20.5647 23.0761 20.3819C23.0004 20.1992 22.9806 19.9981 23.0192 19.8042C23.0578 19.6102 23.153 19.432 23.2929 19.2921C23.4327 19.1523 23.6109 19.057 23.8049 19.0185C23.9989 18.9799 24.2 18.9997 24.3827 19.0754C24.5654 19.151 24.7216 19.2792 24.8315 19.4437C24.9414 19.6081 25 19.8015 25 19.9992C25 20.2645 24.8946 20.5188 24.7071 20.7063C24.5196 20.8939 24.2652 20.9992 24 20.9992ZM27 17.9992C26.8022 17.9992 26.6089 17.9406 26.4444 17.8307C26.28 17.7208 26.1518 17.5647 26.0761 17.3819C26.0004 17.1992 25.9806 16.9981 26.0192 16.8042C26.0578 16.6102 26.153 16.432 26.2929 16.2921C26.4327 16.1523 26.6109 16.057 26.8049 16.0185C26.9989 15.9799 27.2 15.9997 27.3827 16.0754C27.5654 16.151 27.7216 16.2792 27.8315 16.4437C27.9414 16.6081 28 16.8015 28 16.9992C28 17.2645 27.8946 17.5188 27.7071 17.7063C27.5196 17.8939 27.2652 17.9992 27 17.9992ZM12.363 23.0372C12.0527 23.0374 11.7455 22.9764 11.4588 22.8577C11.1721 22.7391 10.9116 22.5651 10.6922 22.3458C10.4727 22.1264 10.2987 21.866 10.1799 21.5794C10.0611 21.2927 10 20.9855 10 20.6752C10.0024 20.0592 10.2403 19.4675 10.665 19.0212C12.3734 17.2651 14.6788 16.2144 17.125 16.0772C16.934 16.2592 16.739 16.4322 16.55 16.6212C15.5597 17.6349 14.658 18.7316 13.855 19.8992C13.1797 20.8348 12.7094 21.9024 12.475 23.0322L12.363 23.0372ZM21 31.5242C22.1299 31.2902 23.1976 30.8199 24.133 30.1442C25.3026 29.3417 26.401 28.44 27.416 27.4492C27.606 27.2602 27.778 27.0652 27.961 26.8742C27.823 29.3204 26.772 31.6257 25.016 33.3342C24.5702 33.7589 23.9787 33.9969 23.363 33.9992C22.7363 33.9992 22.1353 33.7503 21.6921 33.3071C21.249 32.864 21 32.2629 21 31.6362V31.5242Z" fill="#6C63FF"/>
</g>
<defs>
<clipPath id="clip0_3315_2478">
<rect width="24" height="24" fill="white" transform="translate(10 10)"/>
</clipPath>
</defs>
</svg>
