<svg width="98" height="37" viewBox="0 0 98 37" fill="none" xmlns="http://www.w3.org/2000/svg">
<g id="figma_logo.svg" clip-path="url(#clip0_4015_262)">
<path id="Vector" d="M0.931061 0.990014V28.7196L4.42325 28.7306V15.5254H12.8431V12.0351H4.42325V4.47872H15.389V0.988281L0.931061 0.990014Z" fill="black"/>
<path id="Vector_2" d="M21.6744 6.61876C22.9323 6.61876 23.9519 5.57694 23.9519 4.2918C23.9519 3.00666 22.9323 1.96484 21.6744 1.96484C20.4167 1.96484 19.3969 3.00666 19.3969 4.2918C19.3969 5.57694 20.4167 6.61876 21.6744 6.61876Z" fill="black"/>
<path id="Vector_3" d="M19.8979 10.1094V28.7251H23.39V10.1094H19.8979Z" fill="black"/>
<path id="Vector_4" fill-rule="evenodd" clip-rule="evenodd" d="M36.3428 9.56641C31.7054 9.56641 28.4691 13.5736 28.4691 18.3312C28.4691 23.089 31.7054 27.0962 36.3428 27.0962C38.4659 27.0962 40.2155 26.2563 41.4889 24.8893V27.3677C41.4889 30.4519 39.1177 33.0299 36.0229 33.0299C34.9106 33.0299 33.8053 32.5893 32.9248 31.9693L31.175 35.0657C32.5725 35.9861 34.2367 36.5203 36.0229 36.5203C40.9705 36.5203 44.9811 32.4225 44.9811 27.3677V10.1094H41.4889V11.7733C40.2155 10.4062 38.4659 9.56641 36.3428 9.56641ZM31.9613 18.3312C31.9613 15.3781 34.1723 13.0568 36.7224 13.0568C39.2727 13.0568 41.4835 15.3781 41.4835 18.3312C41.4835 21.2844 39.2727 23.6057 36.7224 23.6057C34.1723 23.6057 31.9613 21.2844 31.9613 18.3312Z" fill="black"/>
<path id="Vector_5" d="M57.5643 13.0568C55.4994 13.0568 53.8254 14.8447 53.8254 16.9544V28.7251H50.3332V10.1094H53.8254V11.8147C54.8486 10.4632 56.3561 9.56641 58.3234 9.56641C60.7704 9.56641 62.6485 10.8082 63.7362 12.7086C64.9458 10.873 66.9188 9.56641 69.2935 9.56641C73.2681 9.56641 75.7421 12.8428 75.7655 16.8963C75.7655 16.9085 75.7655 16.9207 75.7655 16.9331V16.9338V16.9344V16.9351C75.7655 16.9415 75.7655 16.948 75.7655 16.9544V28.7251H72.2733V16.9544C72.2733 14.8447 70.5993 13.0568 68.5344 13.0568C66.4693 13.0568 64.7954 14.8447 64.7954 16.9544V28.7251H61.3033V16.9544C61.3033 14.8447 59.6293 13.0568 57.5643 13.0568Z" fill="black"/>
<path id="Vector_6" fill-rule="evenodd" clip-rule="evenodd" d="M94.365 12.2196C92.8114 10.5806 90.6837 9.56641 88.2157 9.56641C83.0205 9.56641 79.3335 14.0606 79.3335 19.4171C79.3335 24.7737 83.0205 29.268 88.2157 29.268C90.6837 29.268 92.8114 28.2539 94.365 26.6148V28.7251H97.8572V10.1094H94.365V12.2196ZM82.8257 19.4171C82.8257 15.8635 85.4889 13.0568 88.5953 13.0568C91.7017 13.0568 94.365 15.8635 94.365 19.4171C94.365 22.971 91.7017 25.7775 88.5953 25.7775C85.4889 25.7775 82.8257 22.971 82.8257 19.4171Z" fill="black"/>
</g>
<defs>
<clipPath id="clip0_4015_262">
<rect width="96.9263" height="35.8986" fill="white" transform="translate(0.931061 0.988281)"/>
</clipPath>
</defs>
</svg>
