<svg width="19" height="18" viewBox="0 0 19 18" fill="none" xmlns="http://www.w3.org/2000/svg">
<g clip-path="url(#clip0_3315_941)">
<path d="M13.0797 2.17474C12.5195 1.69924 11.9322 1.19974 11.3345 0.656735C11.0622 0.408396 10.7387 0.22291 10.3868 0.113398C10.035 0.00388485 9.66333 -0.0269801 9.29821 0.0229855C8.94308 0.0694347 8.60246 0.193246 8.30039 0.385685C7.99831 0.578125 7.74215 0.834503 7.54996 1.13674C6.83748 2.30715 6.30027 3.57561 5.95546 4.90174C5.79172 4.68401 5.58176 4.50528 5.34068 4.37841C5.0996 4.25153 4.8334 4.17967 4.56123 4.16797C4.28906 4.15628 4.01767 4.20506 3.7666 4.3108C3.51554 4.41653 3.29102 4.5766 3.10921 4.77949C1.83787 6.07965 1.13393 7.83088 1.15171 9.64924C1.13481 11.4946 1.7358 13.2927 2.85899 14.757C3.98217 16.2213 5.56298 17.2678 7.34971 17.7297C8.05007 17.9079 8.7698 17.9986 9.49246 17.9997C10.5891 18.0012 11.6752 17.7864 12.6888 17.3677C13.7023 16.949 14.6233 16.3345 15.3991 15.5595C16.1749 14.7844 16.7903 13.864 17.21 12.8509C17.6298 11.8378 17.8456 10.7519 17.8452 9.65524C17.8452 6.22474 15.6372 4.34974 13.0797 2.17474ZM13.2432 14.4642C13.0287 14.6293 12.8031 14.7797 12.5682 14.9142C12.7834 14.4648 12.8961 13.9733 12.8982 13.475C12.8982 12.0297 11.891 10.352 10.6482 8.88124C10.5056 8.71438 10.3286 8.58041 10.1293 8.48855C9.92993 8.39669 9.71306 8.34912 9.49359 8.34912C9.27411 8.34912 9.05724 8.39669 8.85792 8.48855C8.65859 8.58041 8.48154 8.71438 8.33896 8.88124C6.57496 10.9497 5.47021 13.1862 6.49996 14.9997C5.55295 14.4671 4.76612 13.6903 4.22145 12.7501C3.67678 11.81 3.39422 10.741 3.40321 9.65449C3.37995 8.5904 3.73771 7.55302 4.41196 6.72949C4.51796 6.90349 4.63171 7.07174 4.75321 7.23424C4.95387 7.50517 5.22952 7.71136 5.54609 7.82732C5.86266 7.94329 6.20628 7.96394 6.53446 7.88674C6.86738 7.8125 7.17181 7.64382 7.41126 7.40091C7.65071 7.158 7.81501 6.85118 7.88446 6.51724C8.16164 5.04521 8.69227 3.63249 9.45271 2.34199C9.46831 2.31636 9.48963 2.29469 9.51501 2.27869C9.54038 2.26268 9.56912 2.25277 9.59896 2.24974C9.6387 2.24456 9.67908 2.24812 9.7173 2.26016C9.75551 2.27221 9.79064 2.29246 9.82021 2.31949C10.4382 2.88124 11.045 3.39724 11.624 3.88774C14.0157 5.91874 15.5952 7.26274 15.5952 9.65224C15.5983 10.5812 15.3878 11.4984 14.9799 12.333C14.5721 13.1676 13.9779 13.8973 13.2432 14.4657V14.4642Z" fill="#F9F9FA"/>
</g>
<defs>
<clipPath id="clip0_3315_941">
<rect width="18" height="18" fill="white" transform="translate(0.5)"/>
</clipPath>
</defs>
</svg>
