<svg width="17" height="17" viewBox="0 0 17 17" fill="none" xmlns="http://www.w3.org/2000/svg">
<g clip-path="url(#clip0_3315_1643)">
<path d="M8.5 0C6.81886 0 5.17547 0.498516 3.77766 1.43251C2.37984 2.3665 1.29037 3.69402 0.647028 5.24719C0.00368293 6.80036 -0.164645 8.50943 0.163329 10.1583C0.491303 11.8071 1.30085 13.3217 2.4896 14.5104C3.67834 15.6992 5.1929 16.5087 6.84174 16.8367C8.49057 17.1646 10.1996 16.9963 11.7528 16.353C13.306 15.7096 14.6335 14.6202 15.5675 13.2223C16.5015 11.8245 17 10.1811 17 8.5C16.9976 6.24641 16.1013 4.08582 14.5077 2.49228C12.9142 0.898753 10.7536 0.00243743 8.5 0V0ZM10.7823 4.95833H6.21775C6.81896 3.77136 7.58756 2.6769 8.5 1.7085C9.41278 2.67663 10.1814 3.77114 10.7823 4.95833ZM11.3489 6.375C11.5666 7.06256 11.6803 7.77882 11.6861 8.5C11.6803 9.22118 11.5666 9.93744 11.3489 10.625H5.64967C5.43196 9.93744 5.31832 9.22118 5.3125 8.5C5.31832 7.77882 5.43196 7.06256 5.64967 6.375H11.3489ZM6.65834 1.66883C5.8421 2.66743 5.16842 3.77449 4.65659 4.95833H2.37505C3.31419 3.34081 4.85326 2.15883 6.65834 1.66883ZM1.41667 8.5C1.41661 7.77917 1.52672 7.06256 1.74321 6.375H4.17917C3.99554 7.06856 3.90034 7.78256 3.89584 8.5C3.90034 9.21744 3.99554 9.93144 4.17917 10.625H1.74321C1.52672 9.93744 1.41661 9.22083 1.41667 8.5ZM2.37505 12.0417H4.65659C5.16842 13.2255 5.8421 14.3326 6.65834 15.3312C4.85326 14.8412 3.31419 13.6592 2.37505 12.0417ZM6.21775 12.0417H10.7823C10.181 13.2286 9.41245 14.3231 8.5 15.2915C7.58723 14.3234 6.81859 13.2289 6.21775 12.0417ZM10.3452 15.3312C11.1602 14.3324 11.8327 13.2253 12.3434 12.0417H14.625C13.6866 13.6585 12.149 14.8403 10.3452 15.3312ZM15.5833 8.5C15.5834 9.22083 15.4733 9.93744 15.2568 10.625H12.8208C13.0045 9.93144 13.0997 9.21744 13.1042 8.5C13.0997 7.78256 13.0045 7.06856 12.8208 6.375H15.2554C15.4723 7.06248 15.5829 7.77909 15.5833 8.5ZM12.3434 4.95833C11.8327 3.7747 11.1602 2.66764 10.3452 1.66883C12.149 2.15966 13.6866 3.34154 14.625 4.95833H12.3434Z" fill="#374957"/>
</g>
<defs>
<clipPath id="clip0_3315_1643">
<rect width="17" height="17" fill="white"/>
</clipPath>
</defs>
</svg>
