<svg width="135" height="44" viewBox="0 0 135 44" fill="none" xmlns="http://www.w3.org/2000/svg">
<g id="google_logo.svg" clip-path="url(#clip0_4010_901)">
<g id="Group">
<path id="Vector" d="M17.0864 15.8976V20.4033H27.96C27.6713 22.8958 26.8052 24.8131 25.4581 26.0594C23.9185 27.5932 21.4166 29.3188 17.0864 29.3188C10.4469 29.3188 5.25066 23.9503 5.25066 17.3356C5.25066 10.7208 10.3506 5.35237 17.0864 5.35237C20.6468 5.35237 23.3411 6.79035 25.2656 8.6118L28.4411 5.44823C25.7468 2.85986 22.0902 0.84668 17.0864 0.84668C7.94498 0.84668 0.246918 8.22834 0.246918 17.3356C0.246918 26.4428 7.94498 33.8245 17.0864 33.8245C21.994 33.8245 25.7468 32.1948 28.6335 29.2229C31.6165 26.2511 32.5788 22.033 32.5788 18.6777C32.5788 17.6232 32.4826 16.6645 32.3863 15.8976H17.0864Z" fill="#4285F4"/>
<path id="Vector_2" d="M46.0506 12.1592C40.1808 12.1592 35.2733 16.6649 35.2733 22.8003C35.2733 28.9357 40.0846 33.4414 46.0506 33.4414C52.0166 33.4414 56.8279 29.0315 56.8279 22.8961C56.8279 16.6649 52.0166 12.1592 46.0506 12.1592ZM46.0506 29.3191C42.7789 29.3191 39.9883 26.6349 39.9883 22.8961C39.9883 19.0615 42.7789 16.4731 46.0506 16.4731C49.3223 16.4731 52.1128 19.0615 52.1128 22.8961C52.1128 26.6349 49.3223 29.3191 46.0506 29.3191Z" fill="#EA4335"/>
<path id="Vector_3" d="M98.6856 14.5558H98.4932C97.4347 13.3096 95.414 12.1592 92.8159 12.1592C87.4272 12.1592 82.8084 16.7607 82.8084 22.8003C82.8084 28.7439 87.4272 33.4414 92.8159 33.4414C95.414 33.4414 97.4347 32.291 98.4932 31.0447H98.6856V32.5786C98.6856 36.6049 96.4724 38.8098 93.0083 38.8098C90.1215 38.8098 88.3895 36.7967 87.6197 34.9752L83.5782 36.7008C84.7329 39.4809 87.9083 43.0279 93.1045 43.0279C98.5894 43.0279 103.304 39.7685 103.304 31.9075V12.7344H98.8781V14.5558H98.6856ZM93.297 29.3191C90.0253 29.3191 87.6197 26.539 87.6197 22.8961C87.6197 19.1574 90.1215 16.4731 93.297 16.4731C96.4724 16.4731 98.9743 19.2532 98.9743 22.992C99.0705 26.6349 96.5687 29.3191 93.297 29.3191Z" fill="#4285F4"/>
<path id="Vector_4" d="M70.0105 12.1592C64.1408 12.1592 59.2332 16.6649 59.2332 22.8003C59.2332 28.9357 64.0445 33.4414 70.0105 33.4414C75.9765 33.4414 80.7878 29.0315 80.7878 22.8961C80.7878 16.6649 75.9765 12.1592 70.0105 12.1592ZM70.0105 29.3191C66.7389 29.3191 63.9483 26.6349 63.9483 22.8961C63.9483 19.0615 66.7389 16.4731 70.0105 16.4731C73.2822 16.4731 76.0728 19.0615 76.0728 22.8961C76.0728 26.6349 73.2822 29.3191 70.0105 29.3191Z" fill="#FBBC05"/>
<path id="Vector_5" d="M106.865 1.32617H111.484V33.537H106.865V1.32617Z" fill="#34A853"/>
<path id="Vector_6" d="M125.724 29.3191C123.319 29.3191 121.683 28.2646 120.528 26.0597L134.866 20.2119L134.385 18.9656C133.519 16.569 130.728 12.1592 125.243 12.1592C119.758 12.1592 115.139 16.4731 115.139 22.8003C115.139 28.7439 119.662 33.4414 125.724 33.4414C130.632 33.4414 133.422 30.4695 134.673 28.7439L131.017 26.3473C129.766 28.1688 128.13 29.3191 125.724 29.3191ZM125.436 16.1855C127.36 16.1855 128.996 17.1442 129.477 18.4863L119.855 22.5127C119.758 18.1029 123.03 16.1855 125.436 16.1855Z" fill="#EA4335"/>
</g>
</g>
<defs>
<clipPath id="clip0_4010_901">
<rect width="134.62" height="42.1809" fill="white" transform="translate(0.246918 0.84668)"/>
</clipPath>
</defs>
</svg>
