<svg width="32" height="32" viewBox="0 0 32 32" fill="none" xmlns="http://www.w3.org/2000/svg">
<g clip-path="url(#clip0_4070_915)">
<path d="M23.3334 2.55542C21.832 2.57877 20.3634 2.99789 19.0758 3.77045C17.7882 4.54301 16.7273 5.64164 16.0001 6.95542C15.273 5.64164 14.212 4.54301 12.9244 3.77045C11.6368 2.99789 10.1682 2.57877 8.66677 2.55542C6.27336 2.65941 4.01838 3.70643 2.39448 5.46773C0.770586 7.22903 -0.0902269 9.56145 0.000107148 11.9554C0.000107148 18.0181 6.38144 24.6394 11.7334 29.1288C12.9284 30.1329 14.4392 30.6835 16.0001 30.6835C17.561 30.6835 19.0718 30.1329 20.2668 29.1288C25.6188 24.6394 32.0001 18.0181 32.0001 11.9554C32.0904 9.56145 31.2296 7.22903 29.6057 5.46773C27.9818 3.70643 25.7269 2.65941 23.3334 2.55542ZM18.5534 27.0888C17.8388 27.6906 16.9344 28.0206 16.0001 28.0206C15.0658 28.0206 14.1615 27.6906 13.4468 27.0888C6.59611 21.3408 2.66677 15.8261 2.66677 11.9554C2.57563 10.2684 3.15526 8.61373 4.27926 7.35235C5.40325 6.09098 6.98042 5.32522 8.66677 5.22209C10.3531 5.32522 11.9303 6.09098 13.0543 7.35235C14.1783 8.61373 14.7579 10.2684 14.6668 11.9554C14.6668 12.309 14.8073 12.6482 15.0573 12.8982C15.3073 13.1483 15.6465 13.2888 16.0001 13.2888C16.3537 13.2888 16.6929 13.1483 16.9429 12.8982C17.193 12.6482 17.3334 12.309 17.3334 11.9554C17.2423 10.2684 17.8219 8.61373 18.9459 7.35235C20.0699 6.09098 21.6471 5.32522 23.3334 5.22209C25.0198 5.32522 26.597 6.09098 27.721 7.35235C28.845 8.61373 29.4246 10.2684 29.3334 11.9554C29.3334 15.8261 25.4041 21.3408 18.5534 27.0834V27.0888Z" fill="#130F26"/>
</g>
<defs>
<clipPath id="clip0_4070_915">
<rect width="32" height="32" fill="white"/>
</clipPath>
</defs>
</svg>
