<svg width="139" height="35" viewBox="0 0 139 35" fill="none" xmlns="http://www.w3.org/2000/svg">
<g id="linkedin_logo.svg" clip-path="url(#clip0_4010_926)">
<path id="Path 2525" d="M136.387 32.7885C136.472 32.7893 136.556 32.7725 136.634 32.7392C136.713 32.7058 136.783 32.6565 136.842 32.5943C136.901 32.5322 136.946 32.4586 136.975 32.378C137.004 32.2975 137.017 32.2117 137.012 32.126C137.012 31.6561 136.732 31.4316 136.156 31.4316H135.226V33.8916H135.576V32.8193H136.006L136.016 32.8323L136.683 33.8916H137.057L136.339 32.7953L136.387 32.7885ZM135.982 32.5421H135.577V31.7104H136.091C136.357 31.7104 136.659 31.7543 136.659 32.1056C136.659 32.5097 136.353 32.5421 135.98 32.5421" fill="#0A66C2"/>
<path id="Path 2514" d="M0.119629 5.89062H5.28265V24.8934H14.8409V29.7078H0.119629V5.89062Z" fill="#0A66C2"/>
<path id="Path 2515" d="M17.1237 13.5591H22.0837V29.699H17.1237V13.5591ZM19.6037 5.53516C20.1728 5.53526 20.729 5.70586 21.2021 6.02538C21.6752 6.34491 22.0439 6.799 22.2616 7.33026C22.4793 7.86151 22.5362 8.44606 22.4251 9.00999C22.3141 9.57392 22.04 10.0919 21.6376 10.4984C21.2352 10.905 20.7225 11.1818 20.1643 11.294C19.6062 11.4061 19.0277 11.3485 18.502 11.1284C17.9762 10.9084 17.5269 10.5357 17.2108 10.0576C16.8946 9.57955 16.7259 9.01747 16.7259 8.44248C16.7259 8.06064 16.8003 7.68254 16.945 7.32977C17.0896 6.97701 17.3016 6.65648 17.5688 6.38651C17.8361 6.11653 18.1533 5.90239 18.5025 5.75631C18.8516 5.61024 19.2258 5.53509 19.6037 5.53516Z" fill="#0A66C2"/>
<path id="Path 2516" d="M42.8325 5.88672H47.7925V20.1205L53.4138 13.5515H59.4949L52.985 21.0237L59.358 29.7054H53.124L47.8586 21.7274H47.7935V29.7044H42.8335L42.8325 5.88672Z" fill="#0A66C2"/>
<path id="Path 2517" d="M24.8346 13.5605H29.5977V15.7662H29.6654C30.1412 14.9426 30.8294 14.265 31.6565 13.8058C32.4837 13.3466 33.4188 13.1231 34.3619 13.159C39.3916 13.159 40.3175 16.5028 40.3175 20.8468V29.6977H35.3575V21.8507C35.3575 19.9776 35.3234 17.5699 32.7742 17.5699C30.196 17.5699 29.7982 19.6095 29.7982 21.7144V29.6956H24.8382L24.8346 13.5605Z" fill="#0A66C2"/>
<path id="Path 2518" d="M69.9397 19.7519C69.9492 19.3453 69.8769 18.941 69.7272 18.5635C69.5775 18.1859 69.3535 17.843 69.0687 17.5555C68.784 17.268 68.4445 17.0419 68.0708 16.8909C67.697 16.7399 67.2969 16.6671 66.8945 16.677C66.0278 16.6225 65.1747 16.9143 64.5191 17.4895C63.8634 18.0647 63.4577 18.8772 63.3894 19.7519H69.9397ZM74.1412 26.904C73.317 27.914 72.2808 28.726 71.1077 29.2814C69.9346 29.8368 68.6539 30.1216 67.3584 30.1152C62.3985 30.1152 58.4274 26.7699 58.4274 21.5895C58.4274 16.4092 62.3979 13.0654 67.3584 13.0654C71.9945 13.0654 74.9017 16.4066 74.9017 21.5895V23.1609H63.3894C63.5327 24.0521 63.99 24.8609 64.6769 25.4383C65.3638 26.0158 66.2341 26.3229 67.1275 26.3032C67.8335 26.2987 68.5271 26.116 69.1453 25.7715C69.7636 25.427 70.2867 24.9318 70.6671 24.3308L74.1412 26.904Z" fill="#0A66C2"/>
<path id="Path 2519" d="M85.2404 17.4607C82.7604 17.4607 81.2724 19.1339 81.2724 21.5719C81.2724 24.0099 82.7599 25.6846 85.2404 25.6846C87.7209 25.6846 89.212 24.0141 89.212 21.5719C89.212 19.1297 87.7235 17.4607 85.2404 17.4607ZM93.7783 29.6961H89.212V27.5557H89.1444C88.5715 28.3342 87.8285 28.9686 86.9732 29.4094C86.1179 29.8502 85.1734 30.0856 84.2133 30.0971C79.4476 30.0971 76.3083 26.6217 76.3083 21.7071C76.3083 17.1934 79.0864 13.0488 83.6532 13.0488C85.7059 13.0488 87.6233 13.6163 88.7481 15.1893H88.8131V5.88574H93.7778L93.7783 29.6961Z" fill="#0A66C2"/>
<path id="Path 2520" d="M127.263 29.7054H122.303V21.8569C122.303 19.9853 122.27 17.576 119.723 17.576C117.14 17.576 116.745 19.6152 116.745 21.7206V29.7049H111.785V13.5651H116.546V15.7708H116.613C117.09 14.9475 117.778 14.2703 118.605 13.8111C119.433 13.352 120.368 13.1283 121.311 13.1636C126.338 13.1636 127.265 16.5048 127.265 20.8514L127.263 29.7054ZM106.188 11.3589C105.619 11.359 105.062 11.1885 104.589 10.869C104.116 10.5495 103.747 10.0954 103.529 9.56399C103.311 9.03259 103.254 8.44783 103.365 7.88364C103.476 7.31945 103.75 6.80119 104.152 6.39437C104.555 5.98756 105.067 5.71047 105.626 5.59815C106.184 5.48582 106.763 5.54331 107.289 5.76335C107.815 5.98338 108.264 6.35607 108.581 6.83429C108.897 7.31251 109.066 7.87478 109.066 8.45C109.066 8.83193 108.992 9.21014 108.847 9.56302C108.703 9.91591 108.491 10.2366 108.223 10.5067C107.956 10.7768 107.639 10.9911 107.29 11.1373C106.941 11.2835 106.566 11.3588 106.188 11.3589ZM108.668 29.7054H103.703V13.5651H108.668V29.7054ZM129.736 0.888047H101.211C100.563 0.880664 99.9395 1.13331 99.4763 1.59045C99.0131 2.0476 98.7485 2.67185 98.7406 3.32604V32.2682C98.7482 32.9227 99.0127 33.5474 99.4758 34.005C99.939 34.4626 100.563 34.7158 101.211 34.7088H129.736C130.385 34.717 131.011 34.4646 131.476 34.007C131.941 33.5494 132.207 32.924 132.216 32.2682V3.32395C132.207 2.66847 131.94 2.04351 131.475 1.58637C131.01 1.12923 130.385 0.877313 129.736 0.885958" fill="#0A66C2"/>
<path id="Path 2526" d="M136.025 30.335C135.421 30.3408 134.845 30.5879 134.421 31.0222C133.997 31.4565 133.761 32.0426 133.764 32.6524C133.767 33.2622 134.009 33.846 134.437 34.2761C134.864 34.7062 135.443 34.9477 136.047 34.9477C136.65 34.9477 137.229 34.7062 137.657 34.2761C138.085 33.846 138.326 33.2622 138.329 32.6524C138.332 32.0426 138.096 31.4565 137.672 31.0222C137.249 30.5879 136.672 30.3408 136.069 30.335H136.025ZM136.025 34.6837C135.629 34.6903 135.24 34.5782 134.907 34.3616C134.575 34.1449 134.313 33.8334 134.155 33.4665C133.998 33.0995 133.951 32.6936 134.022 32.3C134.093 31.9065 134.278 31.543 134.553 31.2554C134.828 30.9679 135.181 30.7693 135.568 30.6848C135.955 30.6002 136.358 30.6335 136.727 30.7804C137.095 30.9273 137.412 31.1812 137.637 31.5101C137.862 31.8389 137.986 32.2279 137.993 32.6278C137.993 32.6393 137.993 32.6503 137.993 32.6618C138.004 33.1864 137.808 33.694 137.449 34.073C137.09 34.452 136.596 34.6713 136.077 34.6826H136.025" fill="#0A66C2"/>
</g>
<defs>
<clipPath id="clip0_4010_926">
<rect width="138.21" height="34.1037" fill="white" transform="translate(0.119629 0.885742)"/>
</clipPath>
</defs>
</svg>
