<svg width="17" height="17" viewBox="0 0 17 17" fill="none" xmlns="http://www.w3.org/2000/svg">
<path fill-rule="evenodd" clip-rule="evenodd" d="M2.47925 7.30849C2.47925 4.05025 5.202 1.41675 8.49544 1.41675C11.7982 1.41675 14.5209 4.05025 14.5209 7.30849C14.5209 8.95036 13.9238 10.4747 12.941 11.7666C11.8567 13.1917 10.5204 14.4334 9.01613 15.408C8.67186 15.6333 8.36116 15.6503 7.98332 15.408C6.47052 14.4334 5.13414 13.1917 4.05919 11.7666C3.07565 10.4747 2.47925 8.95036 2.47925 7.30849ZM6.51266 7.49195C6.51266 8.58346 7.40334 9.44193 8.49544 9.44193C9.58825 9.44193 10.4875 8.58346 10.4875 7.49195C10.4875 6.40894 9.58825 5.50867 8.49544 5.50867C7.40334 5.50867 6.51266 6.40894 6.51266 7.49195Z" fill="#130F26"/>
</svg>
