<svg width="8" height="8" viewBox="0 0 8 8" fill="none" xmlns="http://www.w3.org/2000/svg">
<g id="fi-rr-menu-dots" clip-path="url(#clip0_3315_2237)">
<path id="Vector" d="M0.666667 4.66683C1.03486 4.66683 1.33333 4.36835 1.33333 4.00016C1.33333 3.63197 1.03486 3.3335 0.666667 3.3335C0.298477 3.3335 0 3.63197 0 4.00016C0 4.36835 0.298477 4.66683 0.666667 4.66683Z" fill="#374957"/>
<path id="Vector_2" d="M4.00004 4.66683C4.36823 4.66683 4.6667 4.36835 4.6667 4.00016C4.6667 3.63197 4.36823 3.3335 4.00004 3.3335C3.63185 3.3335 3.33337 3.63197 3.33337 4.00016C3.33337 4.36835 3.63185 4.66683 4.00004 4.66683Z" fill="#374957"/>
<path id="Vector_3" d="M7.3333 4.66683C7.70149 4.66683 7.99997 4.36835 7.99997 4.00016C7.99997 3.63197 7.70149 3.3335 7.3333 3.3335C6.9651 3.3335 6.66663 3.63197 6.66663 4.00016C6.66663 4.36835 6.9651 4.66683 7.3333 4.66683Z" fill="#374957"/>
</g>
<defs>
<clipPath id="clip0_3315_2237">
<rect width="8" height="8" fill="white"/>
</clipPath>
</defs>
</svg>
