<svg width="164" height="36" viewBox="0 0 164 36" fill="none" xmlns="http://www.w3.org/2000/svg">
<g id="microsoft_logo.svg" clip-path="url(#clip0_4015_256)">
<path id="Vector" d="M57.6558 20.5965L56.6822 23.3641H56.6011C56.4388 22.74 56.1414 21.7904 55.6546 20.6508L50.4353 7.49145H45.3242V28.465H48.7046V15.5227C48.7046 14.7088 48.7046 13.7862 48.6775 12.6467C48.6505 12.0769 48.5964 11.6428 48.5694 11.3172H48.6505C48.8127 12.1311 49.002 12.7281 49.1373 13.1079L55.4112 28.4108H57.791L64.0108 12.9723C64.146 12.6195 64.2813 11.9141 64.4165 11.3172H64.4976C64.4165 12.8637 64.3624 14.2475 64.3353 15.0886V28.3836H67.932V7.43719H63.0102L57.6558 20.5965ZM71.3394 13.3521H74.855V28.3836H71.3394V13.3521ZM73.1243 7.00307C72.5293 7.00307 72.0426 7.22013 71.6369 7.59998C71.2313 7.97984 71.0149 8.46823 71.0149 9.06515C71.0149 9.63494 71.2313 10.1233 71.6369 10.5032C72.0426 10.883 72.5293 11.073 73.1243 11.073C73.7192 11.073 74.233 10.8559 74.6116 10.5032C75.0173 10.1233 75.2336 9.63494 75.2336 9.06515C75.2336 8.49536 75.0173 8.00698 74.6116 7.59998C74.2601 7.22013 73.7463 7.00307 73.1243 7.00307ZM87.3218 13.2165C86.6727 13.0808 85.9967 12.9994 85.3476 12.9994C83.7521 12.9994 82.2918 13.3521 81.0749 14.0576C79.8579 14.763 78.8844 15.7398 78.2624 16.9608C77.6134 18.2089 77.2889 19.6469 77.2889 21.302C77.2889 22.74 77.6134 24.0153 78.2354 25.182C78.8573 26.3215 79.7227 27.2441 80.8856 27.8681C81.9943 28.4922 83.2924 28.8178 84.7527 28.8178C86.4293 28.8178 87.8626 28.465 88.9984 27.8138L89.0255 27.7867V24.5308L88.8903 24.6393C88.3764 25.0192 87.7815 25.3448 87.1866 25.5347C86.5646 25.7518 85.9967 25.8603 85.5099 25.8603C84.1037 25.8603 82.9949 25.4533 82.2107 24.5579C81.3994 23.6897 80.9937 22.4958 80.9937 21.0035C80.9937 19.457 81.3994 18.236 82.2377 17.3406C83.076 16.4452 84.1848 15.984 85.5369 15.984C86.6727 15.984 87.8356 16.3638 88.8903 17.1236L89.0255 17.2321V13.7862L88.9984 13.7591C88.5387 13.5692 88.0249 13.3521 87.3218 13.2165ZM98.9231 13.1079C98.0578 13.1079 97.2465 13.3792 96.5434 13.949C95.9484 14.4374 95.5428 15.1429 95.1912 15.984H95.1642V13.3521H91.6486V28.3836H95.1642V20.7051C95.1642 19.4027 95.4346 18.3174 96.0296 17.5306C96.6245 16.7166 97.3817 16.3096 98.3012 16.3096C98.6257 16.3096 98.9502 16.391 99.3558 16.4452C99.7344 16.5538 100.005 16.6623 100.194 16.798L100.329 16.9065V13.3793L100.248 13.3521C100.005 13.1893 99.5181 13.1079 98.9231 13.1079ZM108.496 13.0265C106.035 13.0265 104.061 13.7591 102.682 15.1971C101.276 16.6352 100.6 18.6159 100.6 21.1121C100.6 23.4455 101.303 25.3448 102.655 26.7285C104.007 28.0852 105.846 28.7906 108.145 28.7906C110.552 28.7906 112.472 28.058 113.851 26.5929C115.257 25.1277 115.933 23.1742 115.933 20.7593C115.933 18.3717 115.284 16.4724 113.959 15.0886C112.688 13.7048 110.822 13.0265 108.496 13.0265ZM111.309 24.5851C110.66 25.4262 109.632 25.8332 108.361 25.8332C107.09 25.8332 106.062 25.4262 105.332 24.5308C104.602 23.6897 104.251 22.4687 104.251 20.9221C104.251 19.3213 104.629 18.1003 105.332 17.2321C106.062 16.3638 107.063 15.9297 108.334 15.9297C109.578 15.9297 110.552 16.3367 111.255 17.1778C111.958 18.0189 112.336 19.2399 112.336 20.8407C112.282 22.4687 111.985 23.7439 111.309 24.5851ZM123.776 19.5926C122.667 19.1314 121.964 18.7787 121.639 18.4802C121.369 18.2089 121.233 17.829 121.233 17.3406C121.233 16.9336 121.396 16.5266 121.801 16.2553C122.207 15.984 122.667 15.8483 123.343 15.8483C123.938 15.8483 124.56 15.9569 125.155 16.1197C125.75 16.2824 126.291 16.5266 126.723 16.8522L126.858 16.9608V13.6506L126.777 13.6234C126.372 13.4606 125.831 13.2979 125.182 13.1622C124.533 13.0537 123.938 12.9994 123.451 12.9994C121.774 12.9994 120.395 13.4064 119.313 14.3018C118.232 15.1429 117.718 16.2824 117.718 17.6119C117.718 18.3174 117.826 18.9415 118.069 19.457C118.313 19.9725 118.664 20.4609 119.151 20.8679C119.638 21.2477 120.341 21.6819 121.315 22.0888C122.126 22.4416 122.748 22.7129 123.126 22.93C123.505 23.147 123.748 23.3912 123.938 23.5811C124.073 23.7982 124.154 24.0695 124.154 24.4223C124.154 25.4262 123.397 25.9146 121.855 25.9146C121.261 25.9146 120.639 25.806 119.908 25.5618C119.178 25.3176 118.502 24.9649 117.934 24.5579L117.799 24.4494V27.8952L117.88 27.9224C118.394 28.1666 119.016 28.3294 119.773 28.5193C120.53 28.655 121.206 28.7635 121.801 28.7635C123.613 28.7635 125.101 28.3565 126.155 27.4611C127.237 26.5929 127.805 25.4804 127.805 24.0424C127.805 23.0385 127.534 22.1431 126.94 21.4648C126.155 20.8136 125.182 20.1353 123.776 19.5926ZM137.081 13.0265C134.62 13.0265 132.646 13.7591 131.266 15.1971C129.887 16.6352 129.184 18.6159 129.184 21.1121C129.184 23.4455 129.887 25.3448 131.239 26.7285C132.591 28.0852 134.43 28.7906 136.729 28.7906C139.136 28.7906 141.056 28.058 142.435 26.5929C143.841 25.1277 144.517 23.1742 144.517 20.7593C144.517 18.3717 143.868 16.4724 142.543 15.0886C141.272 13.7048 139.406 13.0265 137.081 13.0265ZM139.866 24.5851C139.217 25.4262 138.189 25.8332 136.918 25.8332C135.62 25.8332 134.62 25.4262 133.89 24.5308C133.159 23.6897 132.808 22.4687 132.808 20.9221C132.808 19.3213 133.186 18.1003 133.89 17.2321C134.62 16.3638 135.62 15.9297 136.891 15.9297C138.108 15.9297 139.109 16.3367 139.812 17.1778C140.515 18.0189 140.894 19.2399 140.894 20.8407C140.894 22.4687 140.542 23.7439 139.866 24.5851ZM163.312 16.2553V13.3521H159.77V8.90235L159.661 8.92949L156.308 9.9334L156.227 9.96053V13.3521H150.927V11.4528C150.927 10.5846 151.143 9.90626 151.521 9.47214C151.9 9.03802 152.468 8.82096 153.171 8.82096C153.658 8.82096 154.172 8.92949 154.74 9.17368L154.875 9.25508V6.18908L154.794 6.16195C154.307 5.99916 153.658 5.89062 152.82 5.89062C151.765 5.89062 150.845 6.13482 150.007 6.54181C149.169 7.00307 148.547 7.62712 148.087 8.46823C147.627 9.28221 147.384 10.2047 147.384 11.2629V13.3521H144.923V16.2282H147.384V28.3836H150.927V16.2553H156.227V23.9881C156.227 27.1627 157.714 28.7635 160.689 28.7635C161.176 28.7635 161.69 28.6821 162.176 28.6007C162.69 28.4922 163.069 28.3565 163.285 28.248L163.312 28.2208V25.3176L163.177 25.4262C162.961 25.5618 162.771 25.6704 162.447 25.7518C162.176 25.8332 161.933 25.8603 161.744 25.8603C161.041 25.8603 160.554 25.6975 160.202 25.2905C159.878 24.9106 159.715 24.2866 159.715 23.3641V16.2553H163.312Z" fill="#737373"/>
<path id="Vector_2" d="M0 0.436523H16.5773V17.0689H0V0.436523Z" fill="#F25022"/>
<path id="Vector_3" d="M18.3086 0.436523H34.8859V17.0689H18.3086V0.436523Z" fill="#7FBA00"/>
<path id="Vector_4" d="M0 18.8057H16.5773V35.438H0V18.8057Z" fill="#00A4EF"/>
<path id="Vector_5" d="M18.3086 18.8057H34.8859V35.438H18.3086V18.8057Z" fill="#FFB900"/>
</g>
<defs>
<clipPath id="clip0_4015_256">
<rect width="163.339" height="35.0012" fill="white" transform="translate(0 0.436523)"/>
</clipPath>
</defs>
</svg>
