<svg width="135" height="38" viewBox="0 0 135 38" fill="none" xmlns="http://www.w3.org/2000/svg">
<g id="netflix_logo.svg" clip-path="url(#clip0_4015_294)">
<g id="Group">
<path id="Vector" d="M127.788 18.07L134.982 37.111C132.874 36.8219 130.724 36.4089 128.574 36.0785L124.522 25.546L120.346 35.2111C118.32 34.8806 116.294 34.7567 114.227 34.5089L121.545 17.8635L114.93 0.763672H121.09L124.811 10.3049L128.781 0.763672H134.982L127.788 18.07ZM110.093 0.763672H104.511V33.7654C106.33 33.8894 108.232 33.972 110.093 34.1785V0.763672ZM99.7149 33.3937C94.6295 33.0633 89.544 32.7328 84.3759 32.6502V0.763672H90.0402V27.2807C93.3064 27.3633 96.5727 27.6112 99.7149 27.7764V33.3937ZM78.2981 13.6918V19.3504H70.5252V32.2785H64.9023V0.763672H80.8202V6.4223H70.5252V13.6505H78.2981V13.6918ZM55.3516 6.4223V32.5676C53.4497 32.5676 51.5064 32.5676 49.6459 32.6502V6.4223H43.7749V0.763672H61.2639V6.4223H55.3516ZM37.6558 19.6395C35.1751 19.6395 32.1982 19.6395 30.0896 19.7634V28.1894C33.4386 27.9416 36.7462 27.6938 40.1365 27.5699V33.022L24.4254 34.2611V0.763672H40.1365V6.4223H30.0896V14.0635C32.2809 14.0635 35.6712 13.9396 37.6558 13.9396V19.6395ZM6.15078 16.4591V36.285C4.12487 36.5328 2.30568 36.8219 0.362457 37.111V0.763672H5.77868L13.1795 21.4156V0.763672H18.8851V34.7567C16.8592 35.0872 14.8333 35.2111 12.6833 35.5002L6.15078 16.4591Z" fill="#E50914"/>
</g>
</g>
<defs>
<clipPath id="clip0_4015_294">
<rect width="134.62" height="36.3474" fill="white" transform="translate(0.362427 0.763672)"/>
</clipPath>
</defs>
</svg>
