<svg width="136" height="48" viewBox="0 0 136 48" fill="none" xmlns="http://www.w3.org/2000/svg">
<g id="notion_logo.svg" clip-path="url(#clip0_4015_270)">
<g id="Group">
<g id="Group_2">
<path id="Vector" d="M3.28535 2.61614L29.1049 0.677843C32.2391 0.379643 33.0599 0.603293 35.0748 2.01974L43.3579 7.83463C44.7011 8.80378 45.1489 9.10198 45.1489 10.2202V42.053C45.1489 44.0659 44.4026 45.2587 41.8655 45.4078L11.867 47.197C9.9268 47.2715 9.03132 47.0479 8.06122 45.7805L2.01676 37.9528C0.897415 36.4618 0.449677 35.4181 0.449677 34.1507V5.82179C0.449677 4.18169 1.19591 2.76524 3.28535 2.61614Z" fill="white"/>
<path id="Vector_2" fill-rule="evenodd" clip-rule="evenodd" d="M29.105 0.678099L3.28544 2.6164C1.196 2.7655 0.449768 4.18194 0.449768 5.82204V34.151C0.449768 35.4184 0.897506 36.5366 2.01685 37.953L8.06132 45.8553C9.03141 47.1227 10.0015 47.4209 11.8671 47.2718L41.8655 45.4826C44.4027 45.3335 45.149 44.1407 45.149 42.1278V10.2205C45.149 9.17679 44.7758 8.87859 43.5073 7.98399C43.4326 7.90944 43.358 7.90944 43.2834 7.83489L35.0748 2.09455C33.1347 0.603549 32.3138 0.454449 29.105 0.678099ZM12.5387 9.69864C10.0761 9.84774 9.55378 9.92229 8.13594 8.72949L4.62866 5.97114C4.25554 5.59839 4.40479 5.15109 5.37489 5.07654L30.2244 3.28735C32.3138 3.13825 33.3585 3.80919 34.1794 4.48014L38.4329 7.53669C38.6568 7.61124 39.1045 8.13309 38.5075 8.13309L12.8372 9.69864H12.5387ZM9.70302 41.8296V14.768C9.70302 13.5752 10.0761 13.0534 11.1209 12.9788L40.597 11.2642C41.5671 11.1896 42.0148 11.786 42.0148 12.9788V39.8168C42.0148 41.0096 41.7909 41.9787 40.2238 42.0533L12.0163 43.6934C10.4493 43.8425 9.70302 43.2461 9.70302 41.8296ZM37.5374 16.259C37.6867 17.0791 37.5374 17.8991 36.7166 17.9737L35.3733 18.2719V38.2512C34.1794 38.9222 33.1346 39.2204 32.2392 39.2204C30.8213 39.2204 30.4482 38.7731 29.3289 37.4312L20.3741 23.4158V36.9094L23.2098 37.5803C23.2098 37.5803 23.2098 39.2204 20.9711 39.2204L14.7028 39.5931C14.5535 39.2204 14.7028 38.3258 15.2997 38.1767L16.9415 37.7294V19.8374L14.7028 19.6138C14.5535 18.7937 15.0013 17.6009 16.2698 17.5264L22.9859 17.0791L32.2392 31.2436V18.7192L29.8512 18.421C29.702 17.4518 30.3736 16.7063 31.2691 16.6318L37.5374 16.259Z" fill="black"/>
</g>
<path id="Vector_3" d="M64.9979 33.704V21.4032H65.2218L74.1019 33.704H76.9376V15.5883H73.8034V27.8891H73.5796L64.6994 15.5883H61.8637V33.704H64.9979ZM85.6685 33.9276C89.7727 33.9276 92.2353 31.2438 92.2353 26.7708C92.2353 22.3724 89.6981 19.614 85.6685 19.614C81.5642 19.614 79.1017 22.2978 79.1017 26.7708C79.027 31.2438 81.5642 33.9276 85.6685 33.9276ZM85.6685 31.3184C83.5044 31.3184 82.2358 29.6783 82.2358 26.7708C82.2358 23.9379 83.5044 22.2233 85.6685 22.2233C87.8325 22.2233 89.1011 23.8634 89.1011 26.7708C89.0265 29.6783 87.8325 31.3184 85.6685 31.3184ZM95.071 16.632V20.0613H92.9069V22.5215H95.071V29.9765C95.071 32.6603 96.3396 33.704 99.4737 33.704C100.071 33.704 100.668 33.6294 101.115 33.5549V31.1693C100.742 31.2438 100.518 31.2438 100.071 31.2438C98.8021 31.2438 98.2052 30.6474 98.2052 29.3055V22.596H101.115V20.1359H98.2052V16.7066H95.071V16.632ZM102.981 33.704H106.115V19.9868H102.981V33.704ZM104.548 17.6757C105.593 17.6757 106.414 16.8557 106.414 15.812C106.414 14.7683 105.593 13.9482 104.548 13.9482C103.503 13.9482 102.683 14.7683 102.683 15.812C102.683 16.8557 103.503 17.6757 104.548 17.6757ZM114.622 33.9276C118.726 33.9276 121.189 31.2438 121.189 26.7708C121.189 22.3724 118.652 19.614 114.622 19.614C110.518 19.614 108.055 22.2978 108.055 26.7708C107.981 31.2438 110.518 33.9276 114.622 33.9276ZM114.622 31.3184C112.458 31.3184 111.19 29.6783 111.19 26.7708C111.19 23.9379 112.458 22.2233 114.622 22.2233C116.786 22.2233 118.055 23.8634 118.055 26.7708C117.98 29.6783 116.786 31.3184 114.622 31.3184ZM123.055 33.704H126.189V25.6526C126.189 23.6397 127.383 22.3724 129.174 22.3724C131.039 22.3724 131.935 23.4161 131.935 25.5035V33.6294H135.069V24.758C135.069 21.4778 133.427 19.614 130.368 19.614C128.353 19.614 126.935 20.5832 126.263 22.0742H126.04V19.9868H123.055V33.704Z" fill="black"/>
</g>
</g>
<defs>
<clipPath id="clip0_4015_270">
<rect width="134.62" height="46.6682" fill="white" transform="translate(0.449615 0.603516)"/>
</clipPath>
</defs>
</svg>
