<svg width="14" height="15" viewBox="0 0 14 15" fill="none" xmlns="http://www.w3.org/2000/svg">
<g id="fi-rr-angle-right" clip-path="url(#clip0_3315_1909)">
<path id="Vector" d="M4.08324 14.5C4.00647 14.5005 3.93036 14.4858 3.85929 14.4567C3.78822 14.4277 3.72358 14.3849 3.66907 14.3309C3.6144 14.2767 3.571 14.2121 3.54138 14.1411C3.51177 14.07 3.49652 13.9937 3.49652 13.9167C3.49652 13.8397 3.51177 13.7635 3.54138 13.6924C3.571 13.6213 3.6144 13.5568 3.66907 13.5026L8.4349 8.73672C8.76262 8.4086 8.9467 7.96381 8.9467 7.50006C8.9467 7.03631 8.76262 6.59152 8.4349 6.26339L3.66907 1.49757C3.55923 1.38772 3.49752 1.23874 3.49752 1.0834C3.49752 0.928058 3.55923 0.779078 3.66907 0.669234C3.77891 0.55939 3.92789 0.497681 4.08324 0.497681C4.23858 0.497681 4.38756 0.55939 4.4974 0.669234L9.26324 5.43506C9.53486 5.70599 9.75036 6.02785 9.89739 6.3822C10.0444 6.73654 10.1201 7.11642 10.1201 7.50006C10.1201 7.8837 10.0444 8.26357 9.89739 8.61792C9.75036 8.97227 9.53486 9.29412 9.26324 9.56506L4.4974 14.3309C4.4429 14.3849 4.37825 14.4277 4.30718 14.4567C4.23611 14.4858 4.16001 14.5005 4.08324 14.5Z" fill="#636B78"/>
</g>
<defs>
<clipPath id="clip0_3315_1909">
<rect width="14" height="14" fill="white" transform="translate(0 0.5)"/>
</clipPath>
</defs>
</svg>
