<svg width="194" height="80" viewBox="0 0 194 80" fill="none" xmlns="http://www.w3.org/2000/svg">
<g id="slack_logo.svg">
<g id="Group">
<g id="Group_2">
<path id="Vector" d="M68.5389 50.7064L70.4702 46.1852C72.5574 47.755 75.3298 48.5714 78.0711 48.5714C80.0959 48.5714 81.3731 47.7864 81.3731 46.5933C81.3419 43.2652 69.2554 45.8712 69.1619 37.5196C69.1307 33.2809 72.8689 30.0156 78.1645 30.0156C81.3108 30.0156 84.457 30.8006 86.6999 32.5902L84.8932 37.2056C82.8372 35.8869 80.2828 34.945 77.853 34.945C76.202 34.945 75.1117 35.7299 75.1117 36.7346C75.1429 39.9999 87.3229 38.2103 87.4475 46.1852C87.4475 50.518 83.8029 53.5635 78.5695 53.5635C74.7379 53.5635 71.2179 52.653 68.5389 50.7064Z" fill="black"/>
<path id="Vector_2" d="M142.648 44.5525C141.682 46.248 139.875 47.4097 137.788 47.4097C134.704 47.4097 132.212 44.8979 132.212 41.7896C132.212 38.6813 134.704 36.1695 137.788 36.1695C139.875 36.1695 141.682 37.3312 142.648 39.0266L147.974 36.0439C145.981 32.4646 142.149 30.0156 137.788 30.0156C131.34 30.0156 126.106 35.2904 126.106 41.7896C126.106 48.2888 131.34 53.5635 137.788 53.5635C142.18 53.5635 145.981 51.1459 147.974 47.5353L142.648 44.5525Z" fill="black"/>
<path id="Vector_3" d="M96.793 20.251H90.1267V53.1239H96.793V20.251Z" fill="black"/>
<path id="Vector_4" d="M150.591 20.251V53.1239H157.257V43.2651L165.169 53.1239H173.705L163.643 41.4127L172.957 30.4865H164.796L157.257 39.5603V20.251H150.591Z" fill="black"/>
<path id="Vector_5" d="M116.605 44.6153C115.639 46.2166 113.645 47.4097 111.402 47.4097C108.319 47.4097 105.826 44.8979 105.826 41.7896C105.826 38.6813 108.319 36.1695 111.402 36.1695C113.645 36.1695 115.639 37.4254 116.605 39.058V44.6153ZM116.605 30.4866V33.1553C115.514 31.3029 112.804 30.0156 109.97 30.0156C104.113 30.0156 99.5028 35.2276 99.5028 41.7582C99.5028 48.2888 104.113 53.5635 109.97 53.5635C112.804 53.5635 115.514 52.2762 116.605 50.4238V53.0926H123.271V30.4866H116.605Z" fill="black"/>
</g>
<g id="Group_3">
<g id="Group_4">
<path id="Vector_6" d="M27.3263 44.5839C27.3263 46.8759 25.4884 48.7283 23.2144 48.7283C20.9404 48.7283 19.1025 46.8759 19.1025 44.5839C19.1025 42.2919 20.9404 40.4395 23.2144 40.4395H27.3263V44.5839Z" fill="#E01E5A"/>
<path id="Vector_7" d="M29.3818 44.5839C29.3818 42.2919 31.2197 40.4395 33.4937 40.4395C35.7677 40.4395 37.6056 42.2919 37.6056 44.5839V54.945C37.6056 57.237 35.7677 59.0894 33.4937 59.0894C31.2197 59.0894 29.3818 57.237 29.3818 54.945V44.5839Z" fill="#E01E5A"/>
</g>
<g id="Group_5">
<path id="Vector_8" d="M33.4938 27.9432C31.2197 27.9432 29.3818 26.0907 29.3818 23.7987C29.3818 21.5067 31.2197 19.6543 33.4938 19.6543C35.7678 19.6543 37.6057 21.5067 37.6057 23.7987V27.9432H33.4938Z" fill="#36C5F0"/>
<path id="Vector_9" d="M33.4943 30.0469C35.7683 30.0469 37.6063 31.8993 37.6063 34.1913C37.6063 36.4833 35.7683 38.3357 33.4943 38.3357H23.1833C20.9093 38.3357 19.0714 36.4833 19.0714 34.1913C19.0714 31.8993 20.9093 30.0469 23.1833 30.0469H33.4943Z" fill="#36C5F0"/>
</g>
<g id="Group_6">
<path id="Vector_10" d="M49.9727 34.1913C49.9727 31.8993 51.8106 30.0469 54.0847 30.0469C56.3587 30.0469 58.1966 31.8993 58.1966 34.1913C58.1966 36.4833 56.3587 38.3357 54.0847 38.3357H49.9727V34.1913Z" fill="#2EB67D"/>
<path id="Vector_11" d="M47.9173 34.1912C47.9173 36.4832 46.0794 38.3356 43.8054 38.3356C41.5313 38.3356 39.6934 36.4832 39.6934 34.1912V23.7987C39.6934 21.5067 41.5313 19.6543 43.8054 19.6543C46.0794 19.6543 47.9173 21.5067 47.9173 23.7987V34.1912Z" fill="#2EB67D"/>
</g>
<g id="Group_7">
<path id="Vector_12" d="M43.8054 50.8008C46.0794 50.8008 47.9173 52.6532 47.9173 54.9452C47.9173 57.2372 46.0794 59.0896 43.8054 59.0896C41.5314 59.0896 39.6935 57.2372 39.6935 54.9452V50.8008H43.8054Z" fill="#ECB22E"/>
<path id="Vector_13" d="M43.8054 48.7283C41.5313 48.7283 39.6934 46.8759 39.6934 44.5839C39.6934 42.2919 41.5313 40.4395 43.8054 40.4395H54.1163C56.3904 40.4395 58.2283 42.2919 58.2283 44.5839C58.2283 46.8759 56.3904 48.7283 54.1163 48.7283H43.8054Z" fill="#ECB22E"/>
</g>
</g>
</g>
</g>
</svg>
