<svg width="136" height="42" viewBox="0 0 136 42" fill="none" xmlns="http://www.w3.org/2000/svg">
<g id="spotify_logo.svg">
<g id="g10">
<g id="g12">
<path id="path14" d="M33.5267 18.6784C27.1169 14.8676 16.544 14.5172 10.425 16.3764C9.44237 16.6747 8.40332 16.1194 8.10557 15.1357C7.80783 14.1516 8.36195 13.112 9.34525 12.813C16.3695 10.6783 28.046 11.0907 35.4252 15.4759C36.3092 16.001 36.5991 17.1437 36.0751 18.0273C35.5508 18.912 34.4084 19.2036 33.5267 18.6784ZM33.3168 24.3228C32.8673 25.0534 31.9132 25.2823 31.1845 24.8339C25.8406 21.5455 17.6918 20.5928 11.3695 22.514C10.5497 22.762 9.68372 22.2993 9.43477 21.48C9.18765 20.6592 9.65014 19.7938 10.4685 19.5442C17.6908 17.3503 26.669 18.413 32.8067 22.189C33.5355 22.6383 33.7649 23.594 33.3168 24.3228ZM30.8836 29.7435C30.5265 30.33 29.7633 30.5139 29.1796 30.1564C24.51 27.2993 18.6325 26.6539 11.7107 28.2368C11.0436 28.39 10.3789 27.9714 10.2267 27.3038C10.0739 26.6361 10.4903 25.9707 11.1589 25.8183C18.7336 24.0848 25.2312 24.8309 30.4726 28.0372C31.0569 28.3944 31.241 29.1588 30.8836 29.7435ZM21.7641 1.03026C10.782 1.03026 1.87889 9.94279 1.87889 20.9371C1.87889 31.9324 10.782 40.8447 21.7641 40.8447C32.7467 40.8447 41.6493 31.9324 41.6493 20.9371C41.6493 9.94279 32.7467 1.03026 21.7641 1.03026Z" fill="#1ED760"/>
<path id="path16" d="M55.979 19.4078C52.5457 18.5881 51.9342 18.0128 51.9342 16.8043C51.9342 15.662 53.0085 14.8937 54.6056 14.8937C56.1538 14.8937 57.6887 15.4773 59.2984 16.6788C59.3471 16.7151 59.4081 16.7296 59.4682 16.7201C59.5283 16.7111 59.5812 16.6783 59.6166 16.6284L61.293 14.2626C61.3619 14.1654 61.3431 14.0308 61.2503 13.9564C59.3347 12.4177 57.1777 11.6696 54.6564 11.6696C50.9493 11.6696 48.3598 13.8965 48.3598 17.0834C48.3598 20.5007 50.5936 21.7105 54.4536 22.6445C57.739 23.4021 58.2935 24.0367 58.2935 25.1715C58.2935 26.4288 57.1722 27.2104 55.3678 27.2104C53.3639 27.2104 51.7291 26.5346 49.9004 24.9492C49.8551 24.9102 49.7929 24.8922 49.7354 24.8955C49.6751 24.9005 49.6198 24.9285 49.5813 24.9748L47.7016 27.2144C47.6228 27.3074 47.6328 27.4462 47.7237 27.5265C49.8515 29.4281 52.468 30.4326 55.2918 30.4326C59.2865 30.4326 61.8679 28.2473 61.8679 24.8653C61.8679 22.007 60.162 20.4263 55.979 19.4078Z" fill="#1ED760"/>
<path id="path18" d="M73.8058 23.2386C73.8058 25.6522 72.3207 27.3363 70.1943 27.3363C68.0922 27.3363 66.5064 25.5757 66.5064 23.2386C66.5064 20.9019 68.0922 19.1409 70.1943 19.1409C72.2865 19.1409 73.8058 20.8638 73.8058 23.2386ZM70.906 16.0179C69.1745 16.0179 67.7543 16.7006 66.5831 18.0996V16.525C66.5831 16.4006 66.4825 16.2994 66.3583 16.2994H63.2842C63.16 16.2994 63.0596 16.4006 63.0596 16.525V34.0215C63.0596 34.1458 63.16 34.2471 63.2842 34.2471H66.3583C66.4825 34.2471 66.5831 34.1458 66.5831 34.0215V28.4989C67.7545 29.8148 69.1749 30.4576 70.906 30.4576C74.1233 30.4576 77.3802 27.9782 77.3802 23.2386C77.3802 18.498 74.1233 16.0179 70.906 16.0179Z" fill="#1ED760"/>
<path id="path20" d="M85.7289 27.3614C83.5251 27.3614 81.8637 25.5888 81.8637 23.2384C81.8637 20.8782 83.4677 19.1655 85.6781 19.1655C87.8962 19.1655 89.5688 20.938 89.5688 23.29C89.5688 25.6499 87.9539 27.3614 85.7289 27.3614ZM85.7289 16.0178C81.5856 16.0178 78.3396 19.2118 78.3396 23.29C78.3396 27.3238 81.5633 30.4844 85.6781 30.4844C89.8362 30.4844 93.0922 27.3011 93.0922 23.2384C93.0922 19.1894 89.8585 16.0178 85.7289 16.0178Z" fill="#1ED760"/>
<path id="path22" d="M101.94 16.2997H98.5569V12.8371C98.5569 12.7127 98.4567 12.6117 98.3325 12.6117H95.2586C95.1342 12.6117 95.033 12.7127 95.033 12.8371V16.2997H93.5549C93.4309 16.2997 93.331 16.4009 93.331 16.5253V19.1703C93.331 19.2945 93.4309 19.3957 93.5549 19.3957H95.033V26.2401C95.033 29.006 96.4081 30.4082 99.1201 30.4082C100.223 30.4082 101.138 30.1802 102 29.6908C102.07 29.6516 102.114 29.576 102.114 29.4956V26.9768C102.114 26.899 102.073 26.8258 102.007 26.785C101.94 26.7429 101.857 26.7408 101.788 26.7748C101.196 27.073 100.623 27.2107 99.9832 27.2107C98.9971 27.2107 98.5569 26.7626 98.5569 25.7577V19.3957H101.94C102.064 19.3957 102.164 19.2945 102.164 19.1703V16.5253C102.164 16.4009 102.064 16.2997 101.94 16.2997Z" fill="#1ED760"/>
<path id="path24" d="M113.726 16.3133V15.888C113.726 14.6369 114.205 14.079 115.28 14.079C115.921 14.079 116.436 14.2064 117.012 14.3989C117.083 14.4213 117.157 14.4101 117.215 14.3675C117.274 14.325 117.308 14.2568 117.308 14.1845V11.591C117.308 11.4919 117.244 11.4042 117.149 11.3751C116.54 11.1938 115.761 11.0074 114.594 11.0074C111.754 11.0074 110.253 12.6082 110.253 15.6351V16.2864H108.776C108.652 16.2864 108.551 16.3874 108.551 16.5118V19.1703C108.551 19.2946 108.652 19.3958 108.776 19.3958H110.253V29.9528C110.253 30.0771 110.354 30.1782 110.477 30.1782H113.552C113.676 30.1782 113.777 30.0771 113.777 29.9528V19.3958H116.647L121.044 29.95C120.545 31.0589 120.054 31.2796 119.384 31.2796C118.843 31.2796 118.272 31.1176 117.689 30.7982C117.634 30.7679 117.569 30.763 117.51 30.7813C117.451 30.8022 117.402 30.8457 117.377 30.903L116.335 33.1915C116.285 33.2996 116.328 33.4266 116.432 33.4827C117.519 34.0725 118.502 34.3242 119.715 34.3242C121.985 34.3242 123.24 33.2654 124.346 30.4176L129.679 16.6204C129.706 16.551 129.698 16.4728 129.656 16.411C129.613 16.3501 129.545 16.3133 129.471 16.3133H126.27C126.175 16.3133 126.089 16.3741 126.057 16.4642L122.779 25.8393L119.188 16.458C119.155 16.3708 119.071 16.3133 118.978 16.3133H113.726Z" fill="#1ED760"/>
<path id="path26" d="M106.893 16.2993H103.819C103.695 16.2993 103.594 16.4005 103.594 16.5249V29.9524C103.594 30.0767 103.695 30.1777 103.819 30.1777H106.893C107.017 30.1777 107.118 30.0767 107.118 29.9524V16.5249C107.118 16.4005 107.017 16.2993 106.893 16.2993Z" fill="#1ED760"/>
<path id="path28" d="M105.371 10.1862C104.154 10.1862 103.165 11.1734 103.165 12.3924C103.165 13.6124 104.154 14.6006 105.371 14.6006C106.589 14.6006 107.576 13.6124 107.576 12.3924C107.576 11.1734 106.589 10.1862 105.371 10.1862Z" fill="#1ED760"/>
<path id="path30" d="M132.43 17.6357H131.867V18.3548H132.43C132.711 18.3548 132.879 18.2171 132.879 17.995C132.879 17.7611 132.711 17.6357 132.43 17.6357ZM132.795 18.6615L133.407 19.5193H132.891L132.34 18.7325H131.867V19.5193H131.435V17.2457H132.447C132.975 17.2457 133.322 17.516 133.322 17.9709C133.322 18.3435 133.107 18.5713 132.795 18.6615ZM132.315 16.4892C131.207 16.4892 130.369 17.3709 130.369 18.4511C130.369 19.5305 131.201 20.4005 132.304 20.4005C133.412 20.4005 134.251 19.5193 134.251 18.4387C134.251 17.3593 133.418 16.4892 132.315 16.4892ZM132.304 20.6172C131.087 20.6172 130.141 19.6389 130.141 18.4511C130.141 17.263 131.1 16.2736 132.315 16.2736C133.532 16.2736 134.479 17.2518 134.479 18.4387C134.479 19.6268 133.521 20.6172 132.304 20.6172Z" fill="#1ED760"/>
</g>
</g>
</g>
</svg>
