<svg width="106" height="36" viewBox="0 0 106 36" fill="none" xmlns="http://www.w3.org/2000/svg">
<g id="uber_logo.svg" clip-path="url(#clip0_4010_921)">
<g id="Group">
<path id="Vector" d="M5.68195 21.7183V0.436523H0.492432V21.986C0.492432 30.0838 6.22112 35.4377 13.6347 35.4377C17.2741 35.4377 20.4418 34.0323 22.8006 31.623V34.8354H27.9228V0.436523H22.7332V21.7183C22.7332 27.2061 19.0264 30.8869 14.2413 30.8869C9.38875 30.82 5.68195 27.273 5.68195 21.7183ZM33.0449 34.9023H37.9648V31.7569C40.2563 34.0992 43.4913 35.5046 46.9959 35.5046C54.4095 35.5046 60.273 29.6823 60.273 22.3876C60.273 15.0929 54.4095 9.27047 46.9959 9.27047C43.4913 9.27047 40.3237 10.6759 38.0322 13.0182V0.436523H33.0449V34.9023ZM37.9648 22.3876C37.9648 17.5021 41.8738 13.6874 46.6589 13.6874C51.4441 13.6874 55.3531 17.5021 55.3531 22.3876C55.3531 27.2061 51.4441 31.0877 46.6589 31.0877C41.8064 31.0877 37.9648 27.2061 37.9648 22.3876ZM63.2384 22.3206C63.2384 29.8161 69.1019 35.4377 76.6503 35.4377C81.2333 35.4377 85.0075 33.43 87.5685 30.0838L83.9291 27.4068C82.042 29.883 79.5484 31.0877 76.6503 31.0877C72.4044 31.0877 68.9671 28.0092 68.2932 23.9268H88.8491V22.3206C88.8491 14.8252 83.5247 9.27047 76.2459 9.27047C68.8323 9.27047 63.2384 15.2267 63.2384 22.3206ZM76.1111 13.6205C79.8179 13.6205 82.9182 16.1636 83.7943 20.0452H68.3606C69.3041 16.1636 72.4043 13.6205 76.1111 13.6205ZM105.496 14.2228V9.60509H103.744C100.98 9.60509 98.9585 10.8766 97.678 12.8844V9.80587H92.8254V34.9023H97.8128V20.5806C97.8128 16.699 100.172 14.1559 103.474 14.1559H105.496V14.2228Z" fill="black"/>
</g>
</g>
<defs>
<clipPath id="clip0_4010_921">
<rect width="105.004" height="35.0012" fill="white" transform="translate(0.491455 0.436523)"/>
</clipPath>
</defs>
</svg>
