<svg width="30" height="30" viewBox="0 0 30 30" fill="none" xmlns="http://www.w3.org/2000/svg">
<g clip-path="url(#clip0_3315_1630)">
<path d="M25.9996 5.36597C25.7611 5.15343 25.4504 5.04023 25.1311 5.04961C24.8118 5.059 24.5082 5.19026 24.2827 5.41644C24.0571 5.64263 23.9267 5.94658 23.9183 6.26589C23.9098 6.58519 24.0239 6.89564 24.2371 7.13347C26.3199 9.22157 27.4895 12.0505 27.4895 14.9997C27.4895 17.949 26.3199 20.7779 24.2371 22.866C24.1102 22.9791 24.0076 23.117 23.9358 23.2711C23.864 23.4252 23.8244 23.5924 23.8194 23.7623C23.8144 23.9323 23.8441 24.1015 23.9068 24.2596C23.9694 24.4177 24.0636 24.5613 24.1837 24.6817C24.3038 24.8021 24.4471 24.8968 24.605 24.9598C24.7629 25.0229 24.9321 25.0531 25.102 25.0486C25.272 25.0441 25.4393 25.005 25.5936 24.9336C25.7479 24.8622 25.8861 24.7601 25.9996 24.6335C28.551 22.0766 29.984 18.6119 29.984 14.9997C29.984 11.3875 28.551 7.92289 25.9996 5.36597Z" fill="#6C63FF"/>
<path d="M22.6164 9.11721C22.5011 8.99782 22.3632 8.90259 22.2107 8.83708C22.0582 8.77157 21.8941 8.73709 21.7282 8.73564C21.5622 8.7342 21.3976 8.76583 21.244 8.82868C21.0903 8.89153 20.9508 8.98435 20.8334 9.10171C20.716 9.21908 20.6232 9.35864 20.5604 9.51226C20.4975 9.66588 20.4659 9.83048 20.4673 9.99646C20.4688 10.1624 20.5033 10.3265 20.5688 10.479C20.6343 10.6315 20.7295 10.7694 20.8489 10.8847C21.9385 11.9775 22.5503 13.4578 22.5503 15.0009C22.5503 16.5441 21.9385 18.0244 20.8489 19.1172C20.7295 19.2325 20.6343 19.3704 20.5688 19.5229C20.5033 19.6754 20.4688 19.8395 20.4673 20.0054C20.4659 20.1714 20.4975 20.336 20.5604 20.4896C20.6232 20.6433 20.716 20.7828 20.8334 20.9002C20.9508 21.0175 21.0903 21.1104 21.244 21.1732C21.3976 21.2361 21.5622 21.2677 21.7282 21.2663C21.8941 21.2648 22.0582 21.2303 22.2107 21.1648C22.3632 21.0993 22.5011 21.0041 22.6164 20.8847C24.1743 19.3229 25.0493 17.2069 25.0493 15.0009C25.0493 12.795 24.1743 10.679 22.6164 9.11721Z" fill="#6C63FF"/>
<path d="M17.2738 0.257707C13.4757 0.970613 10.0966 3.11546 7.835 6.24896H6.25C4.59301 6.25094 3.00445 6.91006 1.83277 8.08173C0.661102 9.2534 0.00198482 10.842 0 12.499L0 17.499C0.00198482 19.156 0.661102 20.7445 1.83277 21.9162C3.00445 23.0879 4.59301 23.747 6.25 23.749H7.83625C10.0972 26.8826 13.4759 29.0275 17.2738 29.7402C17.454 29.7734 17.6393 29.7665 17.8166 29.7201C17.9939 29.6737 18.1588 29.5888 18.2997 29.4716C18.4405 29.3544 18.5539 29.2076 18.6317 29.0417C18.7095 28.8757 18.7499 28.6947 18.75 28.5115V1.48646C18.7499 1.30319 18.7095 1.12219 18.6317 0.956263C18.5539 0.79034 18.4405 0.643559 18.2997 0.526317C18.1588 0.409075 17.9939 0.32424 17.8166 0.277821C17.6393 0.231403 17.454 0.224536 17.2738 0.257707Z" fill="#6C63FF"/>
</g>
<defs>
<clipPath id="clip0_3315_1630">
<rect width="30" height="30" fill="white"/>
</clipPath>
</defs>
</svg>
