<svg width="185" height="32" viewBox="0 0 185 32" fill="none" xmlns="http://www.w3.org/2000/svg">
<g id="webflow_logo.svg" clip-path="url(#clip0_4015_297)">
<g id="Group">
<path id="Vector" fill-rule="evenodd" clip-rule="evenodd" d="M49.7607 0.680664L34.0472 31.1945H19.3182L25.8686 18.5369H25.5657C20.189 25.5438 12.0862 30.1397 0.575562 31.1945V18.7253C0.575562 18.7253 7.95902 18.3109 12.2755 13.7526H0.575562V0.680664H13.7143V11.4547H14.0172L19.3939 0.680664H29.3521V11.3793H29.655L35.1831 0.680664H49.7607Z" fill="#146EF5"/>
<path id="Vector_2" d="M135.295 27.8413H139.536V3.65625H135.295V27.8413Z" fill="black"/>
<path id="Vector_3" fill-rule="evenodd" clip-rule="evenodd" d="M111.971 27.5776C112.88 27.9543 113.826 28.1427 114.773 28.1427C116.363 28.1427 117.764 27.766 118.976 27.0125C120.225 26.2591 121.172 25.2043 121.854 23.8481C122.535 22.492 122.876 20.9851 122.876 19.2522C122.876 17.5193 122.535 16.0125 121.816 14.6563C121.096 13.3001 120.15 12.283 118.9 11.5296C117.651 10.7761 116.212 10.3994 114.622 10.4371C113.599 10.4371 112.653 10.6255 111.706 11.0398C110.759 11.4166 110.002 11.9816 109.396 12.6974C109.358 12.7351 109.321 12.8104 109.245 12.8481V3.65625H105.004V27.8036H109.207V25.5433C109.321 25.694 109.434 25.807 109.548 25.9201C110.229 26.6358 111.025 27.2009 111.971 27.5776ZM116.288 23.6598C115.606 24.0742 114.811 24.3002 113.902 24.3002C113.031 24.3002 112.198 24.0742 111.479 23.6598C110.759 23.2077 110.154 22.605 109.737 21.8515C109.321 21.0981 109.093 20.2317 109.093 19.2522C109.093 18.2728 109.283 17.4063 109.699 16.6529C110.116 15.8995 110.722 15.2967 111.441 14.8447C112.16 14.4303 112.993 14.2042 113.864 14.2042C114.735 14.2042 115.53 14.3926 116.25 14.807C116.969 15.2214 117.499 15.8241 117.878 16.5775C118.257 17.331 118.446 18.1974 118.446 19.2145C118.446 20.194 118.257 21.0604 117.878 21.8515C117.537 22.6426 117.007 23.2454 116.288 23.6598Z" fill="black"/>
<path id="Vector_4" d="M55.8951 5.12598H60.7416L65.0581 20.835L69.6775 5.12598H73.6911L78.6891 20.5336L82.8541 5.12598H87.2842L80.7337 27.8418H76.5687L71.495 12.7733L66.8377 27.8418H62.6348L55.8951 5.12598Z" fill="black"/>
<path id="Vector_5" fill-rule="evenodd" clip-rule="evenodd" d="M94.4025 28.2183C92.6986 28.2183 91.1841 27.8415 89.8588 27.1258C88.4957 26.3724 87.4734 25.3176 86.6783 23.9614C85.921 22.6052 85.5424 21.0607 85.5424 19.3655C85.5424 17.6703 85.921 16.1634 86.7161 14.8072C87.5113 13.4511 88.5715 12.3963 89.8967 11.6428C91.2598 10.8894 92.7365 10.5127 94.4025 10.5127C96.2578 10.5127 97.886 10.9271 99.287 11.7559C100.688 12.5846 101.748 13.7524 102.43 15.2593C103.149 16.7662 103.376 18.499 103.187 20.4203H89.8967C89.9346 21.2114 90.1239 21.8895 90.4647 22.5299C90.8433 23.2456 91.4113 23.773 92.0928 24.1497C92.8122 24.5265 93.5695 24.7525 94.4404 24.7525C95.0841 24.7525 95.7277 24.6395 96.2957 24.4134C96.8637 24.1874 97.3559 23.886 97.7345 23.5093C98.151 23.1326 98.4161 22.6806 98.6054 22.2285H103.035C102.77 23.3963 102.24 24.4511 101.407 25.3929C100.612 26.297 99.5899 27.0128 98.3782 27.5402C97.2044 27.9922 95.8792 28.2559 94.4025 28.2183ZM90.5025 16.1257C90.2375 16.5401 90.086 17.0299 89.9724 17.5196H98.7947C98.719 16.8792 98.5297 16.3141 98.2268 15.8244C97.8481 15.2216 97.3559 14.7319 96.7122 14.4305C96.0685 14.0915 95.3491 13.9031 94.554 13.9031C93.6831 13.9031 92.9258 14.0915 92.2064 14.5059C91.487 14.8826 90.919 15.41 90.5025 16.1257Z" fill="black"/>
<path id="Vector_6" d="M126.019 10.8142C126.019 9.42039 126.321 8.21491 126.965 7.16011C127.609 6.06764 128.48 5.23886 129.616 4.63612C130.752 4.03338 132.115 3.73201 133.629 3.69434V7.46148C132.91 7.46148 132.304 7.61216 131.812 7.91354C131.319 8.17724 130.941 8.59162 130.676 9.11902C130.411 9.60875 130.297 10.1738 130.259 10.8142H133.553V14.393H130.259V27.8417H126.019V14.393H123.292V10.8142H126.019Z" fill="black"/>
<path id="Vector_7" fill-rule="evenodd" clip-rule="evenodd" d="M150.289 28.1813C148.547 28.1813 147.032 27.8046 145.669 27.0512C144.306 26.2977 143.246 25.2429 142.489 23.8868C141.732 22.5306 141.353 21.0237 141.353 19.2908C141.353 17.558 141.732 16.0511 142.489 14.6949C143.246 13.3388 144.344 12.284 145.669 11.5305C147.032 10.7771 148.585 10.4004 150.289 10.4004C152.031 10.4004 153.583 10.7771 154.946 11.5305C156.309 12.284 157.407 13.3388 158.164 14.6949C158.922 16.0511 159.3 17.5956 159.338 19.2908C159.338 20.9861 158.922 22.5306 158.164 23.8868C157.407 25.2429 156.347 26.2601 154.984 27.0512C153.583 27.8046 152.031 28.1813 150.289 28.1813ZM150.289 24.3388C151.198 24.3388 151.993 24.1505 152.712 23.7361C153.431 23.3217 153.962 22.7189 154.34 21.9655C154.719 21.2121 154.908 20.3456 154.908 19.3662C154.908 18.3867 154.719 17.5203 154.34 16.7292C153.962 15.9758 153.431 15.373 152.712 14.9586C151.993 14.5442 151.198 14.3182 150.289 14.3182C149.38 14.3182 148.585 14.5442 147.903 14.9586C147.222 15.373 146.692 15.9381 146.275 16.7292C145.897 17.4826 145.707 18.3491 145.707 19.3662C145.707 20.3456 145.897 21.2121 146.275 21.9655C146.654 22.7189 147.222 23.3217 147.903 23.7361C148.585 24.1128 149.38 24.3388 150.289 24.3388Z" fill="black"/>
<path id="Vector_8" d="M163.882 10.8145H159.149L164.26 27.8043H168.388L171.757 16.9549L175.392 27.8043H179.444L184.555 10.8145H180.277L177.399 21.4001L174.181 10.8145H170.054L166.873 21.6261L163.882 10.8145Z" fill="black"/>
</g>
</g>
<defs>
<clipPath id="clip0_4015_297">
<rect width="183.981" height="30.5138" fill="white" transform="translate(0.574585 0.680664)"/>
</clipPath>
</defs>
</svg>
